<svg width="182" height="134" viewBox="0 0 182 134" fill="none" xmlns="http://www.w3.org/2000/svg">
<g clip-path="url(#clip0_28_542)">
<path d="M165.668 122.328C162.179 125.831 158.181 128.855 153.792 131.312C153.692 131.371 153.589 131.425 153.487 131.481L146.382 125.584C146.456 125.519 146.539 125.446 146.628 125.366C151.922 120.652 178.203 87.6926 179.954 79.6664C179.834 80.3351 181.535 106.557 165.668 122.328Z" fill="#F0F0F0"/>
<path d="M155.163 132.45C155.029 132.48 154.892 132.508 154.755 132.534L149.425 128.11C149.529 128.076 149.651 128.035 149.79 127.99C152.077 127.231 158.889 124.938 165.667 122.327C172.951 119.52 180.2 116.349 181.759 114.318C181.424 114.79 171.123 129.104 155.163 132.45Z" fill="#F0F0F0"/>
<path d="M165.569 35.0943H164.81V15.5937C164.81 14.1115 164.499 12.6439 163.894 11.2745C163.289 9.90522 162.403 8.66101 161.285 7.61297C160.167 6.56493 158.841 5.73357 157.381 5.16638C155.92 4.59918 154.355 4.30725 152.775 4.30725H108.718C107.138 4.30725 105.573 4.59918 104.113 5.16637C102.652 5.73356 101.326 6.56491 100.208 7.61295C99.0905 8.66099 98.204 9.90519 97.5991 11.2745C96.9943 12.6438 96.683 14.1115 96.683 15.5936V122.575C96.683 124.058 96.9943 125.525 97.5991 126.895C98.2039 128.264 99.0905 129.508 100.208 130.556C101.326 131.604 102.652 132.436 104.113 133.003C105.573 133.57 107.138 133.862 108.718 133.862H152.775C154.355 133.862 155.92 133.57 157.38 133.003C158.841 132.436 160.167 131.604 161.285 130.556C162.403 129.508 163.289 128.264 163.894 126.895C164.499 125.525 164.81 124.058 164.81 122.575V48.9751H165.569V35.0943Z" fill="#3F3D56"/>
<path d="M162.248 15.6711V122.497C162.248 123.604 162.015 124.7 161.564 125.723C161.112 126.745 160.45 127.674 159.615 128.457C158.78 129.239 157.789 129.86 156.699 130.283C155.608 130.707 154.439 130.924 153.259 130.924H108.99C107.81 130.924 106.642 130.706 105.551 130.283C104.461 129.859 103.47 129.239 102.636 128.456C101.801 127.674 101.14 126.745 100.688 125.722C100.236 124.7 100.004 123.604 100.004 122.497V15.6711C100.004 14.5644 100.236 13.4686 100.688 12.4462C101.14 11.4238 101.801 10.4948 102.636 9.71224C103.47 8.92972 104.461 8.30901 105.551 7.88555C106.642 7.46209 107.81 7.24418 108.99 7.24426H114.362C114.099 7.85232 113.998 8.51183 114.07 9.16478C114.142 9.81773 114.384 10.4441 114.775 10.9889C115.165 11.5336 115.692 11.98 116.31 12.2888C116.928 12.5976 117.617 12.7593 118.317 12.7597H143.556C144.256 12.7604 144.946 12.5993 145.564 12.2908C146.183 11.9823 146.71 11.5358 147.101 10.9908C147.492 10.4457 147.734 9.81887 147.805 9.16549C147.876 8.5121 147.775 7.85229 147.51 7.24426H153.259C154.439 7.24386 155.608 7.46153 156.699 7.88484C157.789 8.30815 158.78 8.9288 159.615 9.71135C160.45 10.4939 161.112 11.423 161.564 12.4456C162.015 13.4682 162.248 14.5642 162.248 15.6711Z" fill="white"/>
<path d="M148.478 71.1837H109.567C108.885 71.183 108.232 70.9288 107.75 70.4768C107.268 70.0249 106.997 69.4122 106.996 68.773V67.5731C106.997 66.934 107.268 66.3213 107.75 65.8693C108.232 65.4174 108.885 65.1632 109.567 65.1625H148.478C149.159 65.1632 149.813 65.4174 150.294 65.8693C150.776 66.3213 151.047 66.934 151.048 67.5731V68.773C151.047 69.4122 150.776 70.0249 150.294 70.4768C149.813 70.9288 149.159 71.183 148.478 71.1837Z" fill="#F0F0F0"/>
<path d="M148.478 81.5271H109.567C108.885 81.5263 108.232 81.2721 107.75 80.8202C107.268 80.3683 106.997 79.7555 106.996 79.1164V77.9165C106.997 77.2774 107.268 76.6646 107.75 76.2127C108.232 75.7608 108.885 75.5066 109.567 75.5059H148.478C149.159 75.5066 149.813 75.7608 150.294 76.2127C150.776 76.6646 151.047 77.2774 151.048 77.9165V79.1164C151.047 79.7555 150.776 80.3683 150.294 80.8202C149.813 81.2721 149.159 81.5263 148.478 81.5271Z" fill="#F0F0F0"/>
<path d="M150.424 68.8704H111.513C110.798 68.8697 110.112 68.6027 109.606 68.1282C109.1 67.6537 108.815 67.0103 108.814 66.3392V65.1393C108.815 64.4683 109.1 63.8249 109.606 63.3504C110.112 62.8758 110.798 62.6089 111.513 62.6082H150.424C151.14 62.6089 151.826 62.8758 152.332 63.3504C152.838 63.8249 153.122 64.4683 153.123 65.1393V66.3392C153.122 67.0103 152.838 67.6537 152.332 68.1282C151.826 68.6027 151.14 68.8697 150.424 68.8704ZM111.513 63.0903C110.934 63.0909 110.379 63.307 109.969 63.6911C109.559 64.0752 109.329 64.5961 109.328 65.1393V66.3392C109.329 66.8825 109.559 67.4033 109.969 67.7875C110.379 68.1716 110.934 68.3877 111.513 68.3883H150.424C151.003 68.3877 151.559 68.1716 151.968 67.7875C152.378 67.4033 152.608 66.8825 152.609 66.3392V65.1393C152.608 64.5961 152.378 64.0752 151.968 63.6911C151.559 63.307 151.003 63.0909 150.424 63.0903H111.513Z" fill="#3F3D56"/>
<path d="M150.424 79.2138H111.513C110.798 79.213 110.112 78.9461 109.606 78.4716C109.1 77.9971 108.815 77.3537 108.814 76.6826V75.4827C108.815 74.8116 109.1 74.1683 109.606 73.6938C110.112 73.2192 110.798 72.9523 111.513 72.9515H150.424C151.14 72.9523 151.826 73.2192 152.332 73.6938C152.838 74.1683 153.122 74.8116 153.123 75.4827V76.6826C153.122 77.3537 152.838 77.9971 152.332 78.4716C151.826 78.9461 151.14 79.213 150.424 79.2138ZM111.513 73.4337C110.934 73.4343 110.379 73.6504 109.969 74.0345C109.559 74.4186 109.329 74.9395 109.328 75.4827V76.6826C109.329 77.2259 109.559 77.7467 109.969 78.1309C110.379 78.515 110.934 78.7311 111.513 78.7317H150.424C151.003 78.7311 151.559 78.515 151.968 78.1309C152.378 77.7467 152.608 77.2259 152.609 76.6826V75.4827C152.608 74.9395 152.378 74.4186 151.968 74.0345C151.559 73.6504 151.003 73.4343 150.424 73.4337H111.513Z" fill="#3F3D56"/>
<path d="M162.248 15.6711V38.9073C158.311 39.8786 154.189 39.9901 150.198 39.233C146.208 38.476 142.456 36.8706 139.231 34.5405C136.006 32.2103 133.394 29.2175 131.596 25.7922C129.799 22.367 128.862 18.6006 128.86 14.7828C128.86 14.1013 128.889 13.427 128.948 12.7597H143.556C144.256 12.7604 144.946 12.5993 145.564 12.2908C146.183 11.9823 146.71 11.5358 147.101 10.9908C147.492 10.4457 147.734 9.81887 147.805 9.16549C147.876 8.5121 147.775 7.85229 147.51 7.24426H153.259C154.439 7.24386 155.608 7.46153 156.699 7.88484C157.789 8.30815 158.78 8.9288 159.615 9.71135C160.45 10.4939 161.112 11.423 161.564 12.4456C162.016 13.4682 162.248 14.5642 162.248 15.6711Z" fill="#F0F0F0"/>
<path d="M122.372 129.473C122.372 129.963 122.353 130.446 122.31 130.924H108.99C107.81 130.924 106.642 130.706 105.551 130.283C104.461 129.859 103.47 129.239 102.636 128.456C101.801 127.674 101.14 126.745 100.688 125.722C100.236 124.7 100.004 123.604 100.004 122.497V111.071C102.796 110.73 105.634 110.952 108.327 111.72C111.021 112.489 113.509 113.787 115.625 115.529C117.742 117.27 119.438 119.414 120.602 121.819C121.765 124.223 122.369 126.833 122.372 129.473H122.372Z" fill="#221FD1"/>
<path d="M14.9408 109.424C15.3151 109.578 15.7393 109.587 16.1206 109.448C16.5018 109.31 16.8089 109.035 16.9744 108.685L28.9739 83.1813C29.2485 82.5977 29.3324 81.9508 29.215 81.3225C29.0976 80.6941 28.7841 80.1125 28.3142 79.6513C27.8443 79.19 27.2391 78.8698 26.5751 78.7311C25.9111 78.5924 25.2182 78.6415 24.5839 78.8721H24.5839C23.8511 79.1345 23.238 79.6269 22.8487 80.2655C22.7868 80.3665 22.7306 80.4706 22.6805 80.5772L10.681 106.08C10.5992 106.254 10.5547 106.441 10.5501 106.631C10.5455 106.821 10.5808 107.01 10.654 107.187C10.7272 107.364 10.8369 107.526 10.9768 107.663C11.1168 107.801 11.2842 107.911 11.4695 107.988L14.9408 109.424Z" fill="#221FD1"/>
<path d="M28.4813 93.6515L16.6123 91.178L19.55 83.8901C20.0504 82.1088 21.2151 80.5547 22.8327 79.5097C24.4504 78.4647 26.4138 77.998 28.367 78.1942L28.4813 78.2061L28.4813 93.6515Z" fill="#2F2E41"/>
<path d="M52.4548 109.789C52.1057 109.788 51.7642 109.693 51.4717 109.514C51.1792 109.335 50.9482 109.081 50.8065 108.782L38.8071 83.2785C38.4255 82.467 38.39 81.5493 38.708 80.7141C39.0259 79.8788 39.6731 79.1897 40.5165 78.7883C41.3598 78.3869 42.3351 78.3039 43.2417 78.5564C44.1482 78.8088 44.9172 79.3775 45.3903 80.1454V80.1452C45.4568 80.2537 45.5171 80.3654 45.5709 80.4799L57.5704 105.983C57.763 106.393 57.7743 106.857 57.6018 107.274C57.4293 107.692 57.0871 108.027 56.6505 108.208L53.0615 109.693L53.0597 109.689C52.8657 109.755 52.661 109.788 52.4548 109.789Z" fill="#221FD1"/>
<path d="M35.8565 101.031C35.4476 101.031 35.0556 101.184 34.7664 101.455C34.4772 101.726 34.3146 102.094 34.3141 102.477V132.132C34.3146 132.515 34.4772 132.883 34.7664 133.154C35.0556 133.425 35.4476 133.578 35.8565 133.578H39.6506C40.0596 133.578 40.4516 133.425 40.7408 133.154C41.0299 132.883 41.1926 132.515 41.193 132.132V102.477C41.1926 102.094 41.0299 101.726 40.7408 101.455C40.4516 101.184 40.0596 101.031 39.6506 101.031H35.8565Z" fill="#221FD1"/>
<path d="M28.3523 101.031C27.9434 101.031 27.5513 101.184 27.2622 101.455C26.973 101.726 26.8104 102.094 26.8099 102.477V132.132C26.8104 132.515 26.973 132.883 27.2622 133.154C27.5513 133.425 27.9434 133.578 28.3523 133.578H32.1464C32.5554 133.578 32.9474 133.425 33.2366 133.154C33.5257 132.883 33.6884 132.515 33.6888 132.132V102.477C33.6884 102.094 33.5257 101.726 33.2366 101.455C32.9474 101.184 32.5554 101.031 32.1464 101.031H28.3523Z" fill="#221FD1"/>
<path d="M33.888 69.9628C41.1286 69.9628 46.9982 64.4584 46.9982 57.6685C46.9982 50.8785 41.1286 45.3741 33.888 45.3741C26.6475 45.3741 20.7779 50.8785 20.7779 57.6685C20.7779 64.4584 26.6475 69.9628 33.888 69.9628Z" fill="#221FD1"/>
<path d="M38.2508 62.8294C39.1006 62.8073 40.1583 62.7797 40.9731 62.2215C41.2157 62.0485 41.415 61.8278 41.5571 61.5749C41.6992 61.322 41.7807 61.0431 41.7957 60.7576C41.8104 60.5547 41.7749 60.3513 41.692 60.1634C41.609 59.9755 41.4808 59.8082 41.3175 59.6744C40.8919 59.3372 40.2704 59.2581 39.6007 59.4427L40.2946 54.6875L39.7853 54.6221L38.9695 60.2124L39.3949 60.0293C39.888 59.8172 40.5649 59.7093 40.9856 60.0426C41.0889 60.1298 41.1694 60.2381 41.2207 60.3591C41.2721 60.4802 41.2931 60.6107 41.2819 60.7406C41.2694 60.9531 41.2083 61.1606 41.1027 61.3489C40.9971 61.5373 40.8494 61.7021 40.6698 61.8321C40.0357 62.2665 39.1927 62.3225 38.2365 62.3476L38.2508 62.8294Z" fill="#2F2E41"/>
<path d="M45.5826 55.0975H42.8137V55.5797H45.5826V55.0975Z" fill="#2F2E41"/>
<path d="M36.8425 55.0975H34.0735V55.5797H36.8425V55.0975Z" fill="#2F2E41"/>
<path d="M46.8783 109.938L42.1596 77.6357C42.109 77.2893 41.9263 76.9718 41.6454 76.742C41.3645 76.5122 41.0042 76.3856 40.6314 76.3856H37.0697C37.0846 76.306 37.0923 76.2253 37.0928 76.1445V74.9392C37.0928 74.5556 36.9303 74.1877 36.6411 73.9164C36.3518 73.6452 35.9595 73.4928 35.5505 73.4928H32.4657C32.0567 73.4928 31.6643 73.6452 31.3751 73.9164C31.0859 74.1877 30.9234 74.5556 30.9233 74.9392V76.1445C30.9239 76.2253 30.9316 76.306 30.9464 76.3856H27.3847C27.0119 76.3856 26.6517 76.5122 26.3708 76.742C26.0898 76.9718 25.9072 77.2893 25.8565 77.6357L21.1379 109.938C21.108 110.143 21.1252 110.351 21.1883 110.549C21.2514 110.747 21.3589 110.93 21.5037 111.085C21.6485 111.241 21.8271 111.366 22.0276 111.451C22.2281 111.537 22.4457 111.581 22.666 111.581H45.3502C45.5704 111.581 45.7881 111.537 45.9886 111.451C46.189 111.366 46.3677 111.241 46.5124 111.085C46.6572 110.93 46.7648 110.747 46.8279 110.549C46.891 110.351 46.9082 110.143 46.8783 109.938Z" fill="#2F2E41"/>
<path d="M39.5349 93.6514V78.2061L39.6492 78.1942C41.6047 77.9981 43.5704 78.4664 45.189 79.5139C46.8077 80.5614 47.972 82.1186 48.4704 83.9027L51.4038 91.1779L39.5349 93.6514Z" fill="#2F2E41"/>
<path d="M33.2278 70.3464L24.1599 67.0458C22.6771 66.5061 21.186 65.9828 19.711 65.4245C19.0792 65.218 18.4972 64.8964 17.9986 64.478C17.5645 64.047 17.2686 63.5101 17.1448 62.9287C16.8303 61.6821 16.8872 60.3191 16.9096 59.047C16.927 57.6552 17.0492 56.2664 17.2751 54.8908C17.6711 52.3059 18.6011 49.8182 20.0129 47.5672C22.5559 43.6543 26.9374 40.7104 31.9773 40.9454C34.3106 41.0542 36.6573 41.8393 38.3909 43.3353C38.5717 43.538 38.7746 43.7224 38.9962 43.8855C39.1503 43.9397 39.318 43.9503 39.4784 43.9159C39.69 43.9031 39.9017 43.8934 40.1136 43.8867C40.8488 43.8576 41.5854 43.8866 42.3154 43.9733C43.6459 44.1081 44.9069 44.5991 45.9478 45.3877C46.8142 46.0865 47.5191 47.0731 47.5916 48.1695C47.6266 48.6728 47.5379 49.177 47.3322 49.643C47.1266 50.1091 46.8095 50.5246 46.4054 50.8575C45.3236 51.7126 43.78 51.412 42.4823 51.3476L37.7283 51.1114L35.3196 50.9917C34.8236 50.9671 34.825 51.6903 35.3196 51.7149L41.7217 52.033C42.7505 52.0841 43.8108 52.2094 44.8405 52.1515C45.6316 52.1179 46.3871 51.8329 46.9826 51.3434C47.5265 50.8748 47.9317 50.2821 48.1586 49.623C48.3855 48.9638 48.4264 48.2608 48.2773 47.5825C47.9473 46.1029 46.7731 44.879 45.3965 44.1509C43.5236 43.1602 41.2866 43.0652 39.1909 43.2117L39.4635 43.3176C37.0928 40.9315 33.4615 39.9241 30.0524 40.2766C26.4529 40.6489 23.2515 42.532 20.9514 45.107C18.3868 47.9779 16.9893 51.5578 16.446 55.2389C16.1632 57.2264 16.0701 59.2335 16.1678 61.2365C16.1638 62.1199 16.3249 62.997 16.644 63.8282C17.0079 64.6371 17.6661 65.2988 18.5013 65.6955C19.4588 66.129 20.4432 66.5082 21.4492 66.8311L24.7901 68.0472L31.3524 70.4358L33.0228 71.0438C33.4858 71.2123 33.6863 70.5133 33.2278 70.3464Z" fill="#2F2E41"/>
<path d="M18.9699 45.7704C18.1818 45.7704 17.4115 45.5512 16.7562 45.1407C16.101 44.7301 15.5903 44.1465 15.2887 43.4638C14.9871 42.781 14.9082 42.0297 15.062 41.3049C15.2157 40.5801 15.5952 39.9143 16.1524 39.3918C16.7097 38.8692 17.4196 38.5133 18.1925 38.3692C18.9655 38.225 19.7666 38.299 20.4947 38.5818C21.2227 38.8646 21.845 39.3435 22.2828 39.958C22.7207 40.5724 22.9543 41.2949 22.9543 42.0339C22.9532 43.0245 22.533 43.9743 21.786 44.6747C21.039 45.3752 20.0263 45.7693 18.9699 45.7704ZM18.9699 39.0206C18.3344 39.0206 17.7131 39.1973 17.1847 39.5284C16.6563 39.8595 16.2444 40.3301 16.0012 40.8807C15.758 41.4313 15.6944 42.0372 15.8183 42.6217C15.9423 43.2063 16.2484 43.7432 16.6977 44.1646C17.1471 44.586 17.7197 44.873 18.343 44.9893C18.9663 45.1056 19.6124 45.0459 20.1995 44.8178C20.7867 44.5897 21.2885 44.2035 21.6416 43.708C21.9947 43.2124 22.1832 42.6298 22.1832 42.0339C22.1822 41.235 21.8433 40.469 21.2409 39.9041C20.6386 39.3392 19.8218 39.0215 18.9699 39.0206Z" fill="#2F2E41"/>
<path d="M85.5757 68.9258L76.9515 62.7402L70.3555 70.8277L78.9797 77.0132L85.5757 68.9258Z" fill="#F0F0F0"/>
<path d="M36.8357 13.7087C38.1983 13.7077 39.5423 14.006 40.7599 14.5795C41.9776 15.1531 43.035 15.9861 43.8477 17.0118L48.8835 10.8373L33.7737 0L22.2173 14.1695L28.7296 18.8404C29.3813 17.3247 30.5013 16.0263 31.9457 15.1119C33.3901 14.1975 35.093 13.7088 36.8357 13.7087Z" fill="#F0F0F0"/>
<path d="M181.743 134H0.257062C0.188885 134 0.1235 133.975 0.0752916 133.929C0.0270831 133.884 0 133.823 0 133.759C0 133.695 0.0270831 133.634 0.0752916 133.588C0.1235 133.543 0.188885 133.518 0.257062 133.518H181.743C181.811 133.518 181.876 133.543 181.925 133.588C181.973 133.634 182 133.695 182 133.759C182 133.823 181.973 133.884 181.925 133.929C181.876 133.975 181.811 134 181.743 134Z" fill="#3F3D56"/>
<path d="M137.448 94H118.975C118.293 93.9992 117.64 93.745 117.158 93.2931C116.676 92.8412 116.405 92.2284 116.404 91.5893V90.3894C116.405 89.7503 116.676 89.1375 117.158 88.6856C117.64 88.2337 118.293 87.9795 118.975 87.9788H137.448C138.13 87.9795 138.783 88.2337 139.265 88.6856C139.747 89.1375 140.018 89.7503 140.019 90.3894V91.5893C140.018 92.2284 139.747 92.8412 139.265 93.2931C138.783 93.745 138.13 93.9992 137.448 94Z" fill="#221FD1"/>
<path d="M139.394 91.6868H120.921C120.206 91.6861 119.52 91.4191 119.014 90.9446C118.508 90.4701 118.223 89.8267 118.222 89.1556V87.9557C118.223 87.2847 118.508 86.6413 119.014 86.1668C119.52 85.6922 120.206 85.4253 120.921 85.4246H139.394C140.11 85.4253 140.796 85.6922 141.302 86.1668C141.808 86.6413 142.093 87.2847 142.094 87.9557V89.1556C142.093 89.8267 141.808 90.4701 141.302 90.9446C140.796 91.4191 140.11 91.6861 139.394 91.6868ZM120.921 85.9067C120.342 85.9073 119.787 86.1234 119.377 86.5075C118.967 86.8917 118.737 87.4125 118.736 87.9557V89.1556C118.737 89.6989 118.967 90.2197 119.377 90.6039C119.787 90.988 120.342 91.2041 120.921 91.2047H139.394C139.974 91.2041 140.529 90.988 140.939 90.6039C141.348 90.2197 141.579 89.6989 141.579 89.1556V87.9557C141.579 87.4125 141.348 86.8917 140.939 86.5075C140.529 86.1234 139.974 85.9073 139.394 85.9067H120.921Z" fill="#3F3D56"/>
</g>
<defs>
<clipPath id="clip0_28_542">
<rect width="182" height="134" fill="white"/>
</clipPath>
</defs>
</svg>
