<svg width="83" height="54" viewBox="0 0 83 54" fill="none" xmlns="http://www.w3.org/2000/svg">
<g clip-path="url(#clip0_158_266)">
<path d="M54.1702 23.5787C54.0746 24.0757 53.9598 24.5677 53.8261 25.0547C53.8116 25.1112 53.7953 25.1669 53.7791 25.2234H51.9185C51.76 25.2236 51.6081 25.2859 51.496 25.3966C51.3839 25.5074 51.3209 25.6575 51.3207 25.8142V31.0564C51.2644 31.1602 51.2071 31.2631 51.1499 31.3661C50.8545 31.8977 50.5471 32.4235 50.2328 32.9425C45.1088 41.3776 37.9622 48.4363 29.424 53.4954L29.9295 52.3679C29.7442 52.3553 29.5581 52.3426 29.3728 52.3299C25.3381 52.0574 21.2897 51.7553 17.3498 50.8591C13.228 49.9215 9.19585 48.2953 5.96552 45.5991C2.73431 42.902 0.365598 39.0505 0.0368354 34.8834C-0.0727892 33.4513 0.0737703 32.0113 0.469792 30.6294C1.22718 27.9694 2.88208 25.5762 5.2696 24.1601C9.01995 21.9365 13.912 22.3897 17.8655 24.2395C21.8183 26.0884 25.0358 29.1492 28.1773 32.1568C25.0055 26.7815 20.5893 22.2259 15.291 18.8639C13.5354 17.7533 11.6722 16.7643 10.1796 15.3255C8.68776 13.8875 7.58707 11.8714 7.85095 9.82839C8.15065 7.51108 10.0711 5.75242 11.9949 4.39629C12.7635 3.85451 13.5567 3.34058 14.3748 2.86801C16.6829 1.53129 19.1797 0.522844 21.8166 0.149002C25.3885 -0.358175 29.2464 0.411451 31.9849 2.73383C35.07 5.35073 36.3355 9.571 36.2151 13.6082C38.1159 10.8773 41.0474 8.78703 44.358 8.69843C47.7949 8.60729 51.062 10.7533 52.7835 13.6951C54.5041 16.636 54.8132 20.2411 54.1702 23.5787Z" fill="#E6E6E6"/>
<path d="M32.4243 34.92C34.4374 34.7448 36.2969 34.5401 38.2476 33.9946C40.1385 33.4658 41.958 32.5807 43.304 31.1353C44.7518 29.5807 45.5333 27.5618 46.0847 25.5521C46.3921 24.4316 46.6447 23.2954 46.8831 22.1588C47.1417 20.9256 47.3715 19.687 47.5724 18.4429C47.9725 15.9665 48.258 13.4755 48.4292 10.9699C48.4499 10.6658 48.4688 10.3616 48.486 10.0572C48.4967 9.86947 48.2012 9.87006 48.1906 10.0572C48.05 12.527 47.7971 14.9871 47.4319 17.4376C47.0715 19.8452 46.6104 22.2424 46.0253 24.6069C45.5297 26.61 44.8879 28.6443 43.6168 30.3118C42.4248 31.8754 40.7031 32.8973 38.8441 33.5082C36.9525 34.1299 34.958 34.3781 32.9813 34.5627C32.7388 34.5853 32.667 34.6069 32.4243 34.628C32.2364 34.6444 32.2346 34.9365 32.4243 34.92L32.4243 34.92Z" fill="white"/>
<path d="M0.639466 30.8449C3.17929 30.9841 5.69329 31.4219 8.12829 32.149C10.5643 32.8747 12.9053 33.8817 15.1027 35.1492C17.2259 36.3749 19.197 37.8416 20.9758 39.5193C22.7022 41.1486 24.2409 42.9617 25.5636 44.9254C26.8924 46.8942 27.9936 49.0039 28.8466 51.2152C28.9506 51.4858 29.0508 51.7579 29.1472 52.0313C29.2094 52.2076 29.495 52.1317 29.4321 51.9536C28.634 49.6957 27.582 47.5334 26.2958 45.5074C25.0098 43.4813 23.5005 41.6023 21.7957 39.9047C20.0635 38.1809 18.1357 36.6605 16.0506 35.3737C11.6725 32.6786 6.70997 31.0481 1.57052 30.6163C1.2605 30.5906 0.950147 30.5695 0.639469 30.5529C0.449475 30.5426 0.450058 30.8346 0.639469 30.8449L0.639466 30.8449Z" fill="white"/>
<path d="M14.4541 3.2104C16.0781 3.72081 17.6173 4.46417 19.0226 5.41668C20.4586 6.39662 21.7683 7.54605 22.9226 8.8395C24.139 10.2002 25.2204 11.6731 26.1521 13.2379C27.1402 14.8902 27.9986 16.615 28.7198 18.3971C29.4623 20.2267 30.0869 22.1009 30.5897 24.0085C31.1008 25.9388 31.5 27.8962 31.7854 29.8714C32.0693 31.8257 32.2411 33.7942 32.3001 35.7676C32.3594 37.6546 32.303 39.5435 32.131 41.4237C31.9738 43.1779 31.6866 44.9183 31.2717 46.631C30.9033 48.1779 30.3842 49.6858 29.7215 51.1337C29.568 51.4623 29.4051 51.7864 29.2328 52.1059C29.1435 52.2717 29.3984 52.4194 29.488 52.2533C30.2203 50.8703 30.8051 49.4158 31.2328 47.9132C31.7128 46.2406 32.0607 44.5336 32.2734 42.8078C32.5092 40.9353 32.624 39.0499 32.6172 37.1631C32.6129 35.1808 32.4935 33.2003 32.2596 31.2316C32.0255 29.2382 31.678 27.2595 31.2186 25.3048C30.7604 23.3469 30.1792 21.4191 29.4783 19.5326C28.8028 17.7065 27.9939 15.9312 27.0582 14.2208C26.1669 12.5886 25.1283 11.0394 23.955 9.59196C22.8407 8.2138 21.5685 6.96789 20.1639 5.87918C18.8096 4.83252 17.3129 3.97936 15.7181 3.34477C15.3283 3.19146 14.9332 3.05282 14.5327 2.92884C14.3509 2.87231 14.2731 3.15411 14.4541 3.2104H14.4541Z" fill="white"/>
<path d="M31.9791 53.9999C43.6512 53.9999 53.1133 53.6221 53.1133 53.156C53.1133 52.69 43.6512 52.3121 31.9791 52.3121C20.3071 52.3121 10.845 52.69 10.845 53.156C10.845 53.6221 20.3071 53.9999 31.9791 53.9999Z" fill="#E6E6E6"/>
<path d="M50.6514 26.7246C50.641 26.7702 50.6341 26.8164 50.631 26.863L46.9628 28.9544L46.0712 28.4471L45.1207 29.6769L47.0281 31.0204L51.2129 27.7577C51.3836 27.8201 51.5695 27.8297 51.7458 27.7852C51.9221 27.7406 52.0806 27.6441 52.2001 27.5084C52.3195 27.3728 52.3944 27.2044 52.4146 27.0256C52.4349 26.8469 52.3996 26.6663 52.3135 26.5078C52.2274 26.3494 52.0945 26.2206 51.9325 26.1386C51.7705 26.0566 51.5871 26.0253 51.4067 26.0489C51.2263 26.0724 51.0574 26.1497 50.9225 26.2704C50.7875 26.3911 50.693 26.5495 50.6514 26.7246Z" fill="#FFB8B8"/>
<path d="M42.2975 28.0078L45.1857 30.0422L46.4775 28.4416L43.6699 26.2152C43.5491 26.1194 43.4098 26.049 43.2605 26.0083C43.1112 25.9676 42.9551 25.9574 42.8017 25.9784C42.6483 25.9994 42.5008 26.0512 42.3683 26.1305C42.2359 26.2098 42.1212 26.3149 42.0313 26.4396C41.8562 26.6824 41.7858 26.9841 41.8357 27.2782C41.8857 27.5723 42.0518 27.8347 42.2975 28.0078Z" fill="#221FD1"/>
<path d="M36.3352 51.2204L37.3479 51.4826L38.8534 47.7472L37.3588 47.3601L36.3352 51.2204Z" fill="#FFB8B8"/>
<path d="M39.0544 52.9176L35.8717 52.0934L36.1939 50.8782L38.147 51.3839C38.4731 51.4684 38.7519 51.6774 38.9221 51.965C39.0923 52.2526 39.1399 52.5953 39.0544 52.9176Z" fill="#2F2E41"/>
<path d="M45.3375 51.9329L46.368 51.7509L46.1484 47.736L44.6274 48.0045L45.3375 51.9329Z" fill="#FFB8B8"/>
<path d="M48.5265 52.3459L45.2876 52.9177L45.0641 51.681L47.0516 51.3302C47.2159 51.3011 47.3844 51.3044 47.5475 51.3397C47.7105 51.3751 47.8649 51.4418 48.0019 51.5362C48.1389 51.6305 48.2557 51.7506 48.3457 51.8895C48.4357 52.0284 48.4971 52.1835 48.5265 52.3459Z" fill="#2F2E41"/>
<path d="M43.3082 22.4058C43.5621 22.4669 43.7687 22.7226 43.8928 23.0189C44.0073 23.3301 44.0847 23.6533 44.1237 23.9821C44.2212 24.5945 44.3148 25.2575 44.1132 25.8247C43.8769 26.4894 43.2472 26.8376 42.7009 26.674C42.1547 26.5103 41.7203 25.8962 41.5718 25.1892C41.4367 24.4749 41.5238 23.7369 41.8216 23.0724C41.9767 22.7233 42.1906 22.4012 42.4748 22.2437C42.6143 22.1603 42.7804 22.1323 42.9399 22.1651C43.0994 22.198 43.2404 22.2893 43.3346 22.4207" fill="#2F2E41"/>
<path d="M44.7453 33.4934L46.7073 50.8601L45.0869 51.4682L42.0982 39.8226L37.9373 50.4706L36.1636 50.568C36.1636 50.568 38.5972 33.9997 40.4008 33.6232L44.7453 33.4934Z" fill="#2F2E41"/>
<path d="M43.097 24.6224C44.2553 24.6224 45.1943 23.6944 45.1943 22.5497C45.1943 21.405 44.2553 20.4771 43.097 20.4771C41.9387 20.4771 40.9998 21.405 40.9998 22.5497C40.9998 23.6944 41.9387 24.6224 43.097 24.6224Z" fill="#FFB8B8"/>
<path d="M43.9969 25.4919L41.7305 25.1997C41.7305 25.1997 40.2524 26.9526 40.351 29.9715C40.4495 32.9904 40.1046 33.9155 40.1046 33.9155L44.8302 33.9999C44.1471 33.0717 47.0043 27.7402 43.9969 25.4919Z" fill="#221FD1"/>
<path d="M45.2147 34.4219C45.1675 34.4222 45.1203 34.4262 45.0737 34.4339L42.1743 31.3836L42.4699 30.4097L41.0411 29.7767L40.1542 31.9192L44.3257 35.1985C44.3033 35.377 44.3363 35.558 44.4206 35.7174C44.5048 35.8769 44.6361 36.0072 44.7971 36.0911C44.9581 36.175 45.1411 36.2084 45.3218 36.187C45.5025 36.1656 45.6723 36.0904 45.8086 35.9712C45.945 35.8521 46.0414 35.6948 46.0851 35.5202C46.1288 35.3456 46.1177 35.162 46.0532 34.9938C45.9887 34.8256 45.874 34.6808 45.7242 34.5786C45.5744 34.4765 45.3967 34.4218 45.2147 34.4219Z" fill="#FFB8B8"/>
<path d="M42.0391 26.6786L40.6962 29.9228L42.5684 30.7993L44.1189 27.5887C44.1856 27.4506 44.2231 27.3004 44.2291 27.1475C44.235 26.9946 44.2093 26.842 44.1535 26.6993C44.0977 26.5565 44.013 26.4265 43.9046 26.3172C43.7961 26.2079 43.6663 26.1216 43.5229 26.0637C43.3846 26.0078 43.2366 25.9793 43.0872 25.98C42.9377 25.9806 42.7899 26.0104 42.6521 26.0675C42.5143 26.1246 42.3893 26.2079 42.2841 26.3128C42.1789 26.4177 42.0957 26.542 42.0391 26.6786Z" fill="#221FD1"/>
<path d="M42.5485 24.4338C42.8771 24.2465 42.9122 23.7945 42.8675 23.4222C42.8229 23.0499 42.7483 22.6348 42.9697 22.3304C43.234 21.967 43.765 21.9598 44.2177 21.9479C44.6703 21.9361 45.2215 21.8051 45.3388 21.3729C45.4163 21.0873 45.2505 20.7808 45.0126 20.6016C44.7746 20.4223 44.477 20.343 44.1876 20.2677C43.5404 20.0992 42.8722 19.9293 42.2095 20.0219C41.5531 20.1136 40.9596 20.4571 40.5575 20.9779C40.1554 21.4988 39.977 22.1552 40.0608 22.8051C40.1681 23.6364 40.3236 23.9994 40.2215 24.3659C40.0313 25.0486 39.2113 25.4872 39.1949 26.1952C39.1822 26.7489 39.6771 27.1761 40.16 27.4573C40.543 27.6803 40.9564 27.8696 41.3978 27.9218C41.8392 27.974 42.3145 27.874 42.6433 27.5784C43.0674 27.197 43.1723 26.5599 43.0507 26.0061C42.9291 25.4524 42.6171 24.9606 42.3085 24.483" fill="#2F2E41"/>
<path d="M82.2314 25.0547H51.9177C51.714 25.055 51.5187 25.1351 51.3746 25.2775C51.2305 25.4198 51.1495 25.6128 51.1492 25.8142V45.0548C51.1495 45.2562 51.2305 45.4492 51.3746 45.5915C51.5187 45.7339 51.714 45.814 51.9177 45.8143H82.2314C82.4351 45.814 82.6304 45.7339 82.7745 45.5915C82.9185 45.4492 82.9996 45.2562 82.9999 45.0548V25.8142C82.9996 25.6128 82.9185 25.4198 82.7745 25.2775C82.6304 25.1351 82.4351 25.055 82.2314 25.0547ZM82.8291 45.0548C82.8289 45.2114 82.7659 45.3616 82.6538 45.4723C82.5418 45.5831 82.3898 45.6454 82.2314 45.6456H51.9177C51.7592 45.6454 51.6073 45.5831 51.4952 45.4723C51.3832 45.3616 51.3201 45.2114 51.32 45.0548V25.8142C51.3201 25.6576 51.3832 25.5074 51.4952 25.3967C51.6073 25.2859 51.7592 25.2236 51.9177 25.2235H82.2314C82.3898 25.2236 82.5418 25.2859 82.6538 25.3967C82.7659 25.5074 82.8289 25.6576 82.8291 25.8142V45.0548Z" fill="#3F3D56"/>
<path d="M58.3881 34.6323H53.6062C53.4138 34.6321 53.2293 34.5564 53.0932 34.422C52.9571 34.2875 52.8806 34.1052 52.8804 33.915V29.1892C52.8806 28.9991 52.9571 28.8167 53.0932 28.6823C53.2293 28.5478 53.4138 28.4722 53.6062 28.4719H58.3881C58.5805 28.4722 58.765 28.5478 58.901 28.6823C59.0371 28.8167 59.1137 28.9991 59.1139 29.1892V33.915C59.1137 34.1052 59.0371 34.2875 58.901 34.422C58.765 34.5564 58.5805 34.6321 58.3881 34.6323Z" fill="#221FD1"/>
<path d="M80.6527 39.6542H53.4985C53.3513 39.6542 53.2101 39.5964 53.106 39.4935C53.002 39.3907 52.9435 39.2511 52.9435 39.1057C52.9435 38.9602 53.002 38.8207 53.106 38.7178C53.2101 38.6149 53.3513 38.5571 53.4985 38.5571H80.6527C80.7999 38.5571 80.9411 38.6149 81.0452 38.7178C81.1493 38.8207 81.2078 38.9602 81.2078 39.1057C81.2078 39.2511 81.1493 39.3907 81.0452 39.4935C80.9411 39.5964 80.7999 39.6542 80.6527 39.6542Z" fill="#CCCCCC"/>
<path d="M80.6708 36.9961H53.5166C53.3694 36.9961 53.2282 36.9383 53.1241 36.8354C53.02 36.7326 52.9615 36.5931 52.9615 36.4476C52.9615 36.3021 53.02 36.1626 53.1241 36.0597C53.2282 35.9568 53.3694 35.899 53.5166 35.899H80.6708C80.818 35.899 80.9591 35.9568 81.0632 36.0597C81.1673 36.1626 81.2258 36.3021 81.2258 36.4476C81.2258 36.5931 81.1673 36.7326 81.0632 36.8354C80.9591 36.9383 80.818 36.9961 80.6708 36.9961Z" fill="#CCCCCC"/>
<path d="M67.2648 33.3663H63.2514C63.1042 33.3663 62.9631 33.3085 62.859 33.2057C62.7549 33.1028 62.6964 32.9633 62.6964 32.8178C62.6964 32.6723 62.7549 32.5328 62.859 32.4299C62.9631 32.3271 63.1042 32.2693 63.2514 32.2693H67.2648C67.412 32.2693 67.5532 32.3271 67.6573 32.4299C67.7614 32.5328 67.8198 32.6723 67.8198 32.8178C67.8198 32.9633 67.7614 33.1028 67.6573 33.2057C67.5532 33.3085 67.412 33.3663 67.2648 33.3663Z" fill="#CCCCCC"/>
<path d="M80.6711 30.6669H63.2514C63.1042 30.6669 62.9631 30.6091 62.859 30.5062C62.7549 30.4033 62.6964 30.2638 62.6964 30.1183C62.6964 29.9729 62.7549 29.8334 62.859 29.7305C62.9631 29.6276 63.1042 29.5698 63.2514 29.5698H80.6711C80.8183 29.5698 80.9595 29.6276 81.0636 29.7305C81.1677 29.8334 81.2262 29.9729 81.2262 30.1183C81.2262 30.2638 81.1677 30.4033 81.0636 30.5062C80.9595 30.6091 80.8183 30.6669 80.6711 30.6669Z" fill="#CCCCCC"/>
<path d="M66.5815 42.3547H53.4985C53.3513 42.3547 53.2101 42.297 53.106 42.1941C53.002 42.0912 52.9435 41.9517 52.9435 41.8062C52.9435 41.6607 53.002 41.5212 53.106 41.4184C53.2101 41.3155 53.3513 41.2577 53.4985 41.2577H66.5815C66.7287 41.2577 66.8699 41.3155 66.974 41.4184C67.0781 41.5212 67.1366 41.6607 67.1366 41.8062C67.1366 41.9517 67.0781 42.0912 66.974 42.1941C66.8699 42.297 66.7287 42.3547 66.5815 42.3547Z" fill="#CCCCCC"/>
</g>
<defs>
<clipPath id="clip0_158_266">
<rect width="83" height="54" fill="white"/>
</clipPath>
</defs>
</svg>
