<svg width="20" height="20" viewBox="0 0 20 20" fill="none" xmlns="http://www.w3.org/2000/svg">
<path d="M19.8792 9.4931C17.9962 5.81914 14.2684 3.33337 10 3.33337C5.73161 3.33337 2.00279 5.82087 0.120845 9.49344C0.041415 9.65057 3.05176e-05 9.82416 3.05176e-05 10.0002C3.05176e-05 10.1763 0.041415 10.3499 0.120845 10.507C2.00383 14.1809 5.73161 16.6667 10 16.6667C14.2684 16.6667 17.9972 14.1792 19.8792 10.5066C19.9586 10.3495 20 10.1759 20 9.99987C20 9.82381 19.9586 9.65022 19.8792 9.4931ZM10 15C9.01111 15 8.04441 14.7068 7.22216 14.1574C6.39991 13.608 5.75905 12.8271 5.38061 11.9135C5.00218 10.9998 4.90316 9.99449 5.09609 9.02459C5.28901 8.05468 5.76521 7.16377 6.46448 6.46451C7.16374 5.76524 8.05466 5.28904 9.02456 5.09611C9.99446 4.90319 10.9998 5.00221 11.9134 5.38064C12.8271 5.75908 13.608 6.39994 14.1574 7.22219C14.7068 8.04444 15 9.01113 15 10C15.0003 10.6567 14.8712 11.3071 14.6201 11.9138C14.3689 12.5206 14.0006 13.0719 13.5363 13.5363C13.0719 14.0006 12.5206 14.3689 11.9138 14.6201C11.307 14.8713 10.6567 15.0004 10 15ZM10 6.66671C9.70249 6.67087 9.40688 6.71513 9.12119 6.7983C9.35669 7.11833 9.46969 7.51215 9.43972 7.90835C9.40975 8.30456 9.23878 8.6769 8.95782 8.95785C8.67687 9.23881 8.30453 9.40978 7.90833 9.43975C7.51213 9.46972 7.1183 9.35671 6.79828 9.12122C6.61604 9.79261 6.64894 10.5042 6.89233 11.1559C7.13573 11.8077 7.57736 12.3666 8.15508 12.7542C8.73281 13.1418 9.41752 13.3384 10.1128 13.3164C10.8082 13.2945 11.4791 13.055 12.0312 12.6317C12.5833 12.2085 12.9888 11.6228 13.1906 10.957C13.3924 10.2912 13.3803 9.57892 13.156 8.92038C12.9318 8.26184 12.5067 7.69019 11.9405 7.28591C11.3744 6.88163 10.6957 6.66507 10 6.66671Z" fill="black"/>
</svg>
