<svg width="182" height="134" viewBox="0 0 182 134" fill="none" xmlns="http://www.w3.org/2000/svg">
<g clip-path="url(#clip0_28_471)">
<g opacity="0.1">
<path opacity="0.1" d="M145.729 94.9361C145.729 94.9361 132.737 93.2575 142.426 114.181C142.426 114.181 151.257 110.416 151.609 101.923C151.68 100.271 151.14 98.6491 150.09 97.3663C149.041 96.0834 147.554 95.2281 145.913 94.9626L145.729 94.9361Z" fill="#221FD1"/>
<path opacity="0.1" d="M145.92 94.9048C145.92 94.9048 148.862 106.571 142.436 114.183" stroke="#535461" stroke-miterlimit="10"/>
<path opacity="0.1" d="M142.261 115.26C142.261 115.26 146.939 103.789 155.675 99.5332C159.353 97.7716 162.357 94.8697 164.236 91.2635C165.114 89.5459 165.832 87.7519 166.381 85.9039" stroke="#535461" stroke-width="2" stroke-miterlimit="10"/>
<path opacity="0.1" d="M171.871 83.1919C170.96 84.3308 166.247 85.998 166.247 85.998C166.247 85.998 166.814 81.0461 167.725 79.9154C167.933 79.6202 168.199 79.3705 168.507 79.1816C168.816 78.9926 169.16 78.8685 169.518 78.8168C169.877 78.7651 170.242 78.7869 170.591 78.8809C170.941 78.9749 171.268 79.139 171.551 79.3633C171.835 79.5876 172.069 79.8672 172.24 80.185C172.41 80.5028 172.514 80.8519 172.544 81.211C172.574 81.5701 172.53 81.9316 172.415 82.2731C172.299 82.6146 172.115 82.929 171.872 83.1969L171.871 83.1919Z" fill="#221FD1"/>
<path opacity="0.1" d="M170.253 92.2127C168.866 92.6765 164.002 91.5227 164.002 91.5227C164.002 91.5227 167.179 87.68 168.566 87.2162C168.902 87.0792 169.263 87.0122 169.626 87.0194C169.989 87.0267 170.346 87.1079 170.676 87.2581C171.006 87.4083 171.302 87.6243 171.545 87.8928C171.788 88.1612 171.973 88.4764 172.089 88.8188C172.204 89.1612 172.248 89.5236 172.217 89.8836C172.187 90.2435 172.082 90.5933 171.91 90.9115C171.738 91.2296 171.502 91.5092 171.217 91.733C170.932 91.9568 170.604 92.12 170.253 92.2127Z" fill="#221FD1"/>
<path opacity="0.1" d="M161.484 102.877C160.053 102.582 156.438 99.142 156.438 99.142C156.438 99.142 161.129 97.4204 162.562 97.7159C163.211 97.8957 163.767 98.3141 164.117 98.8863C164.467 99.4585 164.586 100.142 164.449 100.798C164.311 101.453 163.929 102.033 163.379 102.419C162.828 102.805 162.151 102.968 161.484 102.876V102.877Z" fill="#221FD1"/>
<path opacity="0.1" d="M153.024 109.46C151.562 109.409 147.415 106.628 147.415 106.628C147.415 106.628 151.748 104.138 153.209 104.191C153.879 104.259 154.498 104.578 154.941 105.083C155.384 105.588 155.617 106.242 155.593 106.911C155.57 107.581 155.291 108.217 154.814 108.69C154.337 109.163 153.697 109.437 153.024 109.458V109.46Z" fill="#221FD1"/>
<path opacity="0.1" d="M159.473 88.2923C159.661 89.7366 162.828 93.5859 162.828 93.5859C162.828 93.5859 164.913 89.0631 164.727 87.6188C164.704 87.2582 164.608 86.9061 164.442 86.5842C164.277 86.2623 164.048 85.9776 163.768 85.7476C163.488 85.5176 163.163 85.3472 162.814 85.2471C162.465 85.1469 162.099 85.119 161.739 85.1652C161.379 85.2114 161.032 85.3306 160.72 85.5155C160.408 85.7004 160.137 85.947 159.925 86.2402C159.713 86.5333 159.563 86.8666 159.485 87.2196C159.408 87.5726 159.404 87.9377 159.473 88.2923Z" fill="#221FD1"/>
<path opacity="0.1" d="M149.676 96.123C150.288 97.4435 154.468 100.175 154.468 100.175C154.468 100.175 155.099 95.2383 154.487 93.9178C154.356 93.5808 154.158 93.2739 153.903 93.0163C153.649 92.7586 153.344 92.5556 153.008 92.4198C152.672 92.2839 152.311 92.2182 151.948 92.2265C151.585 92.2349 151.228 92.3172 150.898 92.4685C150.569 92.6197 150.274 92.8365 150.032 93.1056C149.79 93.3747 149.606 93.6904 149.491 94.0331C149.377 94.3757 149.334 94.7381 149.366 95.0979C149.397 95.4577 149.503 95.8071 149.676 96.1247V96.123Z" fill="#221FD1"/>
<path opacity="0.1" d="M141.202 105.026C141.58 106.433 145.238 109.827 145.238 109.827C145.238 109.827 146.698 105.068 146.318 103.661C146.248 103.307 146.105 102.97 145.898 102.673C145.691 102.375 145.425 102.123 145.117 101.932C144.808 101.741 144.464 101.615 144.104 101.562C143.745 101.509 143.378 101.53 143.027 101.624C142.676 101.718 142.348 101.882 142.064 102.107C141.779 102.332 141.544 102.612 141.373 102.931C141.202 103.25 141.098 103.601 141.069 103.961C141.04 104.322 141.085 104.684 141.202 105.026Z" fill="#221FD1"/>
<path opacity="0.25" d="M171.871 83.1919C170.96 84.3308 166.247 85.998 166.247 85.998C166.247 85.998 166.814 81.0461 167.725 79.9154C167.933 79.6202 168.199 79.3705 168.507 79.1816C168.816 78.9926 169.16 78.8685 169.518 78.8168C169.877 78.7651 170.242 78.7869 170.591 78.8809C170.941 78.9749 171.268 79.139 171.551 79.3633C171.835 79.5876 172.069 79.8672 172.24 80.185C172.41 80.5028 172.514 80.8519 172.544 81.211C172.574 81.5701 172.53 81.9316 172.415 82.2731C172.299 82.6146 172.115 82.929 171.872 83.1969L171.871 83.1919Z" fill="black"/>
<path opacity="0.25" d="M170.253 92.2127C168.866 92.6765 164.002 91.5227 164.002 91.5227C164.002 91.5227 167.179 87.68 168.566 87.2162C168.902 87.0792 169.263 87.0122 169.626 87.0194C169.989 87.0267 170.346 87.1079 170.676 87.2581C171.006 87.4083 171.302 87.6243 171.545 87.8928C171.788 88.1612 171.973 88.4764 172.089 88.8188C172.204 89.1612 172.248 89.5236 172.217 89.8836C172.187 90.2435 172.082 90.5933 171.91 90.9115C171.738 91.2296 171.502 91.5092 171.217 91.733C170.932 91.9568 170.604 92.12 170.253 92.2127Z" fill="black"/>
<path opacity="0.25" d="M161.484 102.877C160.053 102.582 156.438 99.142 156.438 99.142C156.438 99.142 161.129 97.4204 162.562 97.7159C163.211 97.8957 163.767 98.3141 164.117 98.8863C164.467 99.4585 164.586 100.142 164.449 100.798C164.311 101.453 163.929 102.033 163.379 102.419C162.828 102.805 162.151 102.968 161.484 102.876V102.877Z" fill="black"/>
<path opacity="0.25" d="M153.024 109.46C151.562 109.409 147.415 106.628 147.415 106.628C147.415 106.628 151.748 104.138 153.209 104.191C153.879 104.259 154.498 104.578 154.941 105.083C155.384 105.588 155.617 106.242 155.593 106.911C155.57 107.581 155.291 108.217 154.814 108.69C154.337 109.163 153.697 109.437 153.024 109.458V109.46Z" fill="black"/>
<path opacity="0.25" d="M159.473 88.2923C159.661 89.7366 162.828 93.5859 162.828 93.5859C162.828 93.5859 164.913 89.0631 164.727 87.6188C164.704 87.2582 164.608 86.9061 164.442 86.5842C164.277 86.2623 164.048 85.9776 163.768 85.7476C163.488 85.5176 163.163 85.3472 162.814 85.2471C162.465 85.1469 162.099 85.119 161.739 85.1652C161.379 85.2114 161.032 85.3306 160.72 85.5155C160.408 85.7004 160.137 85.947 159.925 86.2402C159.713 86.5333 159.563 86.8666 159.485 87.2196C159.408 87.5726 159.404 87.9377 159.473 88.2923Z" fill="black"/>
<path opacity="0.25" d="M149.676 96.123C150.288 97.4435 154.468 100.175 154.468 100.175C154.468 100.175 155.099 95.2383 154.487 93.9178C154.356 93.5808 154.158 93.2739 153.903 93.0163C153.649 92.7586 153.344 92.5556 153.008 92.4198C152.672 92.2839 152.311 92.2182 151.948 92.2265C151.585 92.2349 151.228 92.3172 150.898 92.4685C150.569 92.6197 150.274 92.8365 150.032 93.1056C149.79 93.3747 149.606 93.6904 149.491 94.0331C149.377 94.3757 149.334 94.7381 149.366 95.0979C149.397 95.4577 149.503 95.8071 149.676 96.1247V96.123Z" fill="black"/>
<path opacity="0.25" d="M141.202 105.026C141.58 106.433 145.238 109.827 145.238 109.827C145.238 109.827 146.698 105.068 146.318 103.661C146.248 103.307 146.105 102.97 145.898 102.673C145.691 102.375 145.425 102.123 145.117 101.932C144.808 101.741 144.464 101.615 144.104 101.562C143.745 101.509 143.378 101.53 143.027 101.624C142.676 101.718 142.348 101.882 142.064 102.107C141.779 102.332 141.544 102.612 141.373 102.931C141.202 103.25 141.098 103.601 141.069 103.961C141.04 104.322 141.085 104.684 141.202 105.026Z" fill="black"/>
<path opacity="0.1" d="M148.491 120.48C148.491 120.48 153.17 109.008 161.906 104.752C165.582 102.99 168.585 100.087 170.462 96.4812C171.34 94.7636 172.058 92.9695 172.607 91.1216" stroke="#535461" stroke-width="2" stroke-miterlimit="10"/>
<path opacity="0.1" d="M178.093 88.408C177.182 89.5469 172.469 91.214 172.469 91.214C172.469 91.214 173.037 86.2621 173.948 85.1314C174.4 84.6314 175.027 84.3219 175.7 84.266C176.374 84.2101 177.044 84.4121 177.573 84.8307C178.102 85.2494 178.45 85.8532 178.548 86.5188C178.645 87.1845 178.483 87.8619 178.095 88.4129L178.093 88.408Z" fill="#221FD1"/>
<path opacity="0.1" d="M176.479 97.4286C175.092 97.8924 170.228 96.7387 170.228 96.7387C170.228 96.7387 173.405 92.896 174.792 92.4322C175.443 92.2602 176.136 92.3413 176.73 92.6592C177.324 92.9771 177.774 93.5079 177.988 94.1438C178.203 94.7797 178.167 95.473 177.886 96.0831C177.606 96.6932 177.103 97.1742 176.479 97.4286Z" fill="#221FD1"/>
<path opacity="0.1" d="M167.71 108.1C166.278 107.804 162.664 104.365 162.664 104.365C162.664 104.365 167.355 102.643 168.788 102.938C169.437 103.118 169.992 103.537 170.343 104.109C170.693 104.681 170.811 105.364 170.674 106.02C170.537 106.676 170.155 107.256 169.604 107.641C169.054 108.027 168.377 108.191 167.71 108.098V108.1Z" fill="#221FD1"/>
<path opacity="0.1" d="M159.248 114.674C157.786 114.623 153.639 111.842 153.639 111.842C153.639 111.842 157.972 109.356 159.434 109.407C160.104 109.475 160.723 109.794 161.165 110.299C161.608 110.804 161.841 111.458 161.818 112.127C161.794 112.797 161.515 113.433 161.038 113.906C160.561 114.379 159.921 114.654 159.248 114.674Z" fill="#221FD1"/>
<path opacity="0.1" d="M165.698 93.515C165.885 94.9593 169.052 98.8086 169.052 98.8086C169.052 98.8086 171.137 94.2858 170.952 92.8415C170.929 92.4809 170.832 92.1287 170.667 91.8069C170.502 91.485 170.272 91.2003 169.992 90.9703C169.712 90.7403 169.387 90.5699 169.038 90.4697C168.689 90.3695 168.324 90.3417 167.963 90.3879C167.603 90.434 167.256 90.5532 166.944 90.7381C166.632 90.923 166.362 91.1697 166.149 91.4628C165.937 91.7559 165.787 92.0893 165.71 92.4423C165.632 92.7953 165.628 93.1604 165.698 93.515Z" fill="#221FD1"/>
<path opacity="0.1" d="M155.902 101.332C156.514 102.653 160.695 105.385 160.695 105.385C160.695 105.385 161.325 100.448 160.713 99.1271C160.392 98.5371 159.857 98.0908 159.217 97.879C158.577 97.6671 157.88 97.7056 157.268 97.9865C156.655 98.2675 156.173 98.7698 155.919 99.3915C155.666 100.013 155.66 100.708 155.902 101.334V101.332Z" fill="#221FD1"/>
<path opacity="0.1" d="M147.428 110.246C147.806 111.652 151.464 115.046 151.464 115.046C151.464 115.046 152.924 110.287 152.544 108.881C152.327 108.246 151.876 107.718 151.281 107.402C150.687 107.087 149.995 107.008 149.344 107.181C148.694 107.355 148.134 107.768 147.778 108.337C147.422 108.906 147.297 109.588 147.428 110.246Z" fill="#221FD1"/>
</g>
<path opacity="0.1" d="M1.96582 70.9723C4.8457 83.22 10.9422 93.8071 20.5772 98.9389C40.6004 109.604 85.7578 104.104 119.46 97.7835C136.489 94.6017 151.946 85.8108 163.344 72.8259L1.96582 70.9723Z" fill="#221FD1"/>
<path opacity="0.1" d="M178.699 13.3222H160.207C159.783 13.3222 159.376 13.1546 159.077 12.8564C158.777 12.5581 158.608 12.1536 158.608 11.7318C158.608 11.31 158.777 10.9055 159.077 10.6073C159.376 10.309 159.783 10.1414 160.207 10.1414H163.403C162.98 10.1414 162.573 9.97388 162.273 9.67562C161.974 9.37737 161.805 8.97285 161.805 8.55105C161.805 8.12926 161.974 7.72474 162.273 7.42648C162.573 7.12823 162.98 6.96067 163.403 6.96067H161.121C160.697 6.96067 160.29 6.79311 159.991 6.49486C159.691 6.1966 159.522 5.79208 159.522 5.37028C159.522 4.94849 159.691 4.54397 159.991 4.24571C160.29 3.94746 160.697 3.7799 161.121 3.7799H170.772C168.631 2.78952 166.127 2.0847 163.244 1.71496C136.927 -1.64903 127.531 0.576022 124.216 2.8704C120.127 5.69298 115.565 7.76948 110.69 8.76976C94.4505 12.0991 64.084 16.1101 36.5609 7.48227C22.8814 3.19062 12.7139 10.4402 6.6207 22.5492H181.909C181.68 19.0301 180.995 15.7816 179.737 12.936C179.449 13.1846 179.08 13.3217 178.699 13.3222Z" fill="#221FD1"/>
<path opacity="0.1" d="M0.39652 45.4089C-0.313412 52.5323 -0.0718746 59.7178 1.11483 66.778L163.47 72.6856C167.989 67.5127 171.784 61.7547 174.751 55.5686L0.39652 45.4089ZM64.61 60.6525H61.4132C61.8371 60.6525 62.2437 60.8201 62.5434 61.1183C62.8432 61.4166 63.0116 61.8211 63.0116 62.2429C63.0116 62.6647 62.8432 63.0692 62.5434 63.3675C62.2437 63.6657 61.8371 63.8333 61.4132 63.8333H42.9212C42.4973 63.8333 42.0908 63.6657 41.791 63.3675C41.4913 63.0692 41.3229 62.6647 41.3229 62.2429C41.3229 61.8211 41.4913 61.4166 41.791 61.1183C42.0908 60.8201 42.4973 60.6525 42.9212 60.6525H46.118C45.6941 60.6525 45.2875 60.485 44.9878 60.1867C44.688 59.8885 44.5196 59.4839 44.5196 59.0621C44.5196 58.6404 44.688 58.2358 44.9878 57.9376C45.2875 57.6393 45.6941 57.4718 46.118 57.4718H43.8353C43.4114 57.4718 43.0048 57.3042 42.7051 57.0059C42.4053 56.7077 42.2369 56.3032 42.2369 55.8814C42.2369 55.4596 42.4053 55.0551 42.7051 54.7568C43.0048 54.4585 43.4114 54.291 43.8353 54.291H62.3273C62.7512 54.291 63.1577 54.4585 63.4575 54.7568C63.7572 55.0551 63.9257 55.4596 63.9257 55.8814C63.9257 56.3032 63.7572 56.7077 63.4575 57.0059C63.1577 57.3042 62.7512 57.4718 62.3273 57.4718H64.61C65.0339 57.4718 65.4404 57.6393 65.7402 57.9376C66.0399 58.2358 66.2083 58.6404 66.2083 59.0621C66.2083 59.4839 66.0399 59.8885 65.7402 60.1867C65.4404 60.485 65.0339 60.6525 64.61 60.6525Z" fill="#221FD1"/>
<path opacity="0.1" d="M181.917 22.6599L4.66316 26.9516C2.50822 32.4663 1.08653 38.7008 0.422958 45.163H178.811C179.976 41.3669 180.838 37.4852 181.388 33.5541C181.919 29.756 182.131 26.0817 181.917 22.6599ZM36.4082 36.7183H33.2115C33.6354 36.7183 34.042 36.8859 34.3417 37.1842C34.6415 37.4824 34.8099 37.8869 34.8099 38.3087C34.8099 38.7305 34.6415 39.1351 34.3417 39.4333C34.042 39.7316 33.6354 39.8991 33.2115 39.8991H14.7195C14.2956 39.8991 13.8891 39.7316 13.5893 39.4333C13.2896 39.1351 13.1212 38.7305 13.1212 38.3087C13.1212 37.8869 13.2896 37.4824 13.5893 37.1842C13.8891 36.8859 14.2956 36.7183 14.7195 36.7183H17.9163C17.4923 36.7183 17.0858 36.5508 16.786 36.2525C16.4863 35.9543 16.3179 35.5498 16.3179 35.128C16.3179 34.7062 16.4863 34.3016 16.786 34.0034C17.0858 33.7051 17.4923 33.5376 17.9163 33.5376H15.6336C15.2097 33.5376 14.8031 33.37 14.5034 33.0718C14.2036 32.7735 14.0352 32.369 14.0352 31.9472C14.0352 31.5254 14.2036 31.1209 14.5034 30.8226C14.8031 30.5244 15.2097 30.3568 15.6336 30.3568H34.1256C34.5495 30.3568 34.956 30.5244 35.2558 30.8226C35.5555 31.1209 35.7239 31.5254 35.7239 31.9472C35.7239 32.369 35.5555 32.7735 35.2558 33.0718C34.956 33.37 34.5495 33.5376 34.1256 33.5376H36.4082C36.8321 33.5376 37.2387 33.7051 37.5384 34.0034C37.8382 34.3016 38.0066 34.7062 38.0066 35.128C38.0066 35.5498 37.8382 35.9543 37.5384 36.2525C37.2387 36.5508 36.8321 36.7183 36.4082 36.7183Z" fill="#221FD1"/>
<path d="M155.719 133.916C155.719 133.916 148.327 93.5744 134.231 87.0279C122.287 81.4769 109.371 77.7349 105.698 76.7197C105.15 75.8407 104.516 75.0175 103.805 74.2619C98.7853 69.0476 95.7694 69.145 95.2817 69.2094C95.0502 68.1753 94.884 67.1279 94.784 66.0732C94.7691 65.9081 94.7541 65.7546 94.7409 65.5912L94.784 65.5697C94.7541 65.2577 94.7276 64.9359 94.7044 64.6041C96.7536 63.5159 98.6402 62.1487 100.31 60.5419C100.331 60.6129 100.35 60.6838 100.373 60.7565C103.99 57.7138 107.533 54.5886 111.002 51.3809C111.997 50.4549 113.042 49.4496 113.38 48.144C113.489 47.6947 113.531 47.232 113.505 46.7707C113.55 45.7803 113.314 44.7684 113.274 43.7649C113.274 43.5998 113.293 43.4463 113.314 43.2895C113.546 41.6471 114.694 40.2985 115.637 38.9203C117.991 35.4372 119.219 31.3218 119.158 27.1248C119.184 25.1138 118.905 23.1105 118.329 21.1826C117.594 18.7363 116.065 16.1663 113.518 15.6315C112.533 15.4251 111.509 15.5539 110.504 15.4895C106.342 15.2254 103.226 11.8581 99.9067 9.39043C95.8553 6.39323 91.0642 4.54293 86.0415 4.03578C84.4738 3.87072 82.8547 3.85916 81.3633 4.35435C78.014 5.46358 75.9801 8.88864 72.7535 10.2966C70.368 11.3431 67.6109 11.1731 65.1225 11.9588C61.4182 13.1308 58.2745 16.9107 58.1916 20.7947C58.1916 20.9383 58.1916 21.0819 58.1916 21.2255C58.1916 21.2502 58.1916 21.275 58.1916 21.2981C58.1501 23.2607 58.8551 25.2596 58.9115 27.2684C58.9115 27.45 58.9143 27.6321 58.9198 27.8148C58.9016 29.9837 58.6411 32.1593 57.8465 34.1978C57.4185 35.2955 56.8677 36.5664 56.9573 37.6641C56.9076 38.3359 57.0386 38.9665 57.5081 39.4798L58.3093 38.7766C58.0406 40.2238 57.9057 41.6924 57.9062 43.164C57.9062 50.582 61.297 57.2241 66.6454 61.694C66.6764 62.1881 66.7062 62.7174 66.735 63.2819C66.8611 65.7282 66.9606 68.7967 66.9324 72.1409L59.1089 79.2964L38.9962 88.3749C38.9962 88.3749 20.6021 92.2406 24.5636 117.953L26.4548 133.917H43.248L43.2099 134.002H68.1351L68.15 133.917H127.453L127.441 134.002H129.764V133.917L155.719 133.916ZM95.4293 69.6187C95.9377 70.6651 96.3379 71.7601 96.6237 72.887C96.0368 71.8026 95.603 70.6428 95.3347 69.4405L95.3596 69.485L95.4293 69.6187ZM66.9258 72.92C66.9258 73.2347 66.9202 73.5522 66.9092 73.8724L66.8694 73.9285C66.8667 73.5888 66.8855 73.2491 66.9258 72.9117V72.92Z" fill="url(#paint0_linear_28_471)"/>
<path d="M101.99 76.969L98.6726 108.496L80.9221 114.108C80.9221 114.108 57.8632 109.817 63.8353 97.4368C68.0838 88.6307 67.966 72.8936 67.5446 64.5414C67.3787 61.151 67.1531 58.9771 67.1531 58.9771C67.1531 58.9771 97.3454 32.732 94.8571 56.3361C94.376 60.9067 94.3478 64.4803 94.6149 67.2732C95.7346 78.9002 101.99 76.969 101.99 76.969Z" fill="#FDC2CC"/>
<path opacity="0.03" d="M101.99 76.969L98.6726 108.496L80.9221 114.108C80.9221 114.108 57.8632 109.817 63.8353 97.4368C68.0838 88.6307 67.966 72.8936 67.5446 64.5414C67.3787 61.151 67.1531 58.9771 67.1531 58.9771C67.1531 58.9771 97.3454 32.732 94.8571 56.3361C94.376 60.9067 94.3478 64.4803 94.6149 67.2732C95.7346 78.9002 101.99 76.969 101.99 76.969Z" fill="black"/>
<path opacity="0.1" d="M94.8569 55.8408C94.3758 60.4114 94.3476 63.9851 94.6147 66.7779C90.3524 69.0933 85.4857 70.0715 80.6543 69.5839C75.8229 69.0964 71.2528 67.1659 67.5445 64.0461C67.3786 60.6557 67.153 58.4819 67.153 58.4819C67.153 58.4819 97.3453 32.2368 94.8569 55.8408Z" fill="black"/>
<path d="M83.0786 68.7175C96.3635 68.7175 107.133 58.0018 107.133 44.7833C107.133 31.5648 96.3635 20.8491 83.0786 20.8491C69.7938 20.8491 59.0243 31.5648 59.0243 44.7833C59.0243 58.0018 69.7938 68.7175 83.0786 68.7175Z" fill="#FDC2CC"/>
<path opacity="0.03" d="M83.0786 68.7175C96.3635 68.7175 107.133 58.0018 107.133 44.7833C107.133 31.5648 96.3635 20.8491 83.0786 20.8491C69.7938 20.8491 59.0243 31.5648 59.0243 44.7833C59.0243 58.0018 69.7938 68.7175 83.0786 68.7175Z" fill="black"/>
<path opacity="0.1" d="M43.4304 108.826C43.4304 108.826 51.2274 124.672 51.6421 133.998L43.4304 108.826Z" fill="black"/>
<path opacity="0.1" d="M128.367 117.906L126.128 134H128.367V117.906Z" fill="black"/>
<path opacity="0.1" d="M45.1723 133.998L57.5313 106.02C57.5313 106.02 61.015 99.4176 61.8445 92.8151C62.6739 86.2126 67.153 75.8136 67.153 75.8136C67.153 75.8136 78.2678 61.7832 83.4104 63.764C88.5531 65.7447 78.9313 73.1726 78.9313 73.1726C78.9313 73.1726 93.0321 78.6197 83.4104 94.7959C73.7887 110.972 73.6228 108.001 73.6228 108.001L68.8949 133.998H45.1723Z" fill="black"/>
<path d="M44.8406 133.998L57.1995 106.02C57.1995 106.02 60.6832 99.4176 61.5127 92.815C62.0402 88.6175 64.0426 82.8848 65.4311 79.265C66.3374 76.8985 67.671 74.7168 69.366 72.8275C72.9592 68.8264 79.4854 62.3741 83.0786 63.7606C88.2213 65.7414 78.5996 73.1692 78.5996 73.1692C78.5996 73.1692 92.7004 78.6163 83.0786 94.7925C73.4569 110.969 73.291 107.998 73.291 107.998L68.5631 133.995L44.8406 133.998Z" fill="#FDC2CC"/>
<path opacity="0.15" d="M90.4609 31.8258C90.7358 31.8258 90.9586 31.6041 90.9586 31.3306C90.9586 31.0572 90.7358 30.8354 90.4609 30.8354C90.1861 30.8354 89.9633 31.0572 89.9633 31.3306C89.9633 31.6041 90.1861 31.8258 90.4609 31.8258Z" fill="white"/>
<path opacity="0.15" d="M88.1383 32.8162C88.4132 32.8162 88.636 32.5945 88.636 32.321C88.636 32.0475 88.4132 31.8258 88.1383 31.8258C87.8635 31.8258 87.6406 32.0475 87.6406 32.321C87.6406 32.5945 87.8635 32.8162 88.1383 32.8162Z" fill="white"/>
<path opacity="0.1" d="M65.9901 14.6213C68.3906 13.8488 71.0548 14.0155 73.3574 12.9888C76.4712 11.599 78.4337 8.23503 81.6653 7.14561C83.1052 6.66032 84.6679 6.67848 86.1792 6.83364C91.039 7.33689 95.667 9.15638 99.56 12.0942C102.763 14.519 105.769 17.8252 109.786 18.0844C110.756 18.1471 111.743 18.02 112.694 18.223C115.156 18.7479 116.63 21.2717 117.339 23.6701C118.158 26.5124 118.35 29.4975 117.902 32.4206C117.453 35.3438 116.375 38.1359 114.741 40.6056C113.832 41.9591 112.724 43.2846 112.5 44.8972C112.281 46.4785 112.957 48.1176 112.563 49.6659C112.231 50.9484 111.236 51.9355 110.267 52.845C106.921 55.9933 103.502 59.0607 100.01 62.0473C98.1947 56.3097 100.857 50.1314 100.443 44.1313C100.277 41.794 99.4472 39.2422 97.3752 38.1395C95.436 37.1095 92.9575 37.6443 90.995 36.654C88.8053 35.5563 87.9061 32.9565 86.2505 31.1574C83.4304 28.0872 78.5349 27.691 74.5916 29.0776C70.6484 30.4641 67.4251 33.3164 64.3063 36.0977L58.6378 41.1569C57.5313 39.9156 58.3707 38.0108 58.9696 36.4592C59.8621 34.1334 60.0579 31.6261 59.9981 29.1568C59.95 27.176 59.2632 25.22 59.303 23.2921C59.3827 19.489 62.4152 15.7718 65.9901 14.6213Z" fill="black"/>
<path d="M65.9901 14.1261C68.3906 13.3536 71.0548 13.5203 73.3574 12.4936C76.4712 11.1038 78.4337 7.73979 81.6653 6.65037C83.1052 6.16508 84.6679 6.18324 86.1792 6.3384C91.039 6.84165 95.667 8.66114 99.56 11.599C102.763 14.0237 105.769 17.33 109.786 17.5891C110.756 17.6518 111.743 17.5247 112.694 17.7278C115.156 18.2527 116.63 20.7765 117.339 23.1749C118.158 26.0172 118.35 29.0023 117.902 31.9254C117.453 34.8485 116.375 37.6406 114.741 40.1103C113.832 41.4639 112.724 42.7893 112.5 44.402C112.281 45.9833 112.957 47.6224 112.563 49.1707C112.231 50.4532 111.236 51.4403 110.267 52.3498C106.921 55.4981 103.502 58.5655 100.01 61.5521C98.1947 55.8145 100.857 49.6361 100.443 43.6361C100.277 41.2988 99.4472 38.7469 97.3752 37.6443C95.436 36.6143 92.9575 37.1491 90.995 36.1587C88.8053 35.0611 87.9061 32.4613 86.2505 30.6621C83.4304 27.5919 78.5349 27.1958 74.5916 28.5823C70.6484 29.9689 67.4251 32.8211 64.3063 35.6025L58.6378 40.6617C57.5313 39.4204 58.3707 37.5155 58.9696 35.964C59.8621 33.6382 60.0579 31.1309 59.9981 28.6616C59.95 26.6808 59.2632 24.7248 59.303 22.7969C59.3827 18.9938 62.4152 15.2766 65.9901 14.1261Z" fill="#865A61"/>
</g>
<defs>
<linearGradient id="paint0_linear_28_471" x1="89.8603" y1="133.998" x2="89.8603" y2="3.92518" gradientUnits="userSpaceOnUse">
<stop stop-color="#808080" stop-opacity="0.25"/>
<stop offset="0.54" stop-color="#808080" stop-opacity="0.12"/>
<stop offset="1" stop-color="#808080" stop-opacity="0.1"/>
</linearGradient>
<clipPath id="clip0_28_471">
<rect width="182" height="134" fill="white"/>
</clipPath>
</defs>
</svg>
