<svg width="46" height="46" viewBox="0 0 46 46" fill="none" xmlns="http://www.w3.org/2000/svg">
<path d="M43.127 23.4469C43.127 21.7922 42.99 20.5847 42.6935 19.3325H23.4127V26.801H34.7301C34.502 28.6571 33.2699 31.4522 30.5317 33.3305L30.4933 33.5805L36.5895 38.2087L37.0119 38.25C40.8908 34.7393 43.127 29.5738 43.127 23.4469Z" fill="#4285F4"/>
<path d="M23.4115 43.125C28.956 43.125 33.6107 41.336 37.0106 38.2502L30.5305 33.3306C28.7964 34.5158 26.469 35.3431 23.4115 35.3431C17.981 35.3431 13.3719 31.8325 11.7289 26.9801L11.4881 27.0001L5.14918 31.8078L5.06628 32.0337C8.44322 38.6079 15.3797 43.125 23.4115 43.125Z" fill="#34A853"/>
<path d="M11.7302 26.9802C11.2966 25.728 11.0457 24.3862 11.0457 22.9999C11.0457 21.6134 11.2966 20.2718 11.7073 19.0196L11.6959 18.7529L5.27749 13.868L5.0675 13.9659C3.67569 16.694 2.87708 19.7576 2.87708 22.9999C2.87708 26.2423 3.67569 29.3056 5.0675 32.0337L11.7302 26.9802Z" fill="#FBBC05"/>
<path d="M23.4116 10.6566C27.2677 10.6566 29.8688 12.289 31.352 13.6531L37.1477 8.1075C33.5882 4.86515 28.9562 2.875 23.4116 2.875C15.3798 2.875 8.44324 7.39191 5.06628 13.966L11.7062 19.0197C13.372 14.1673 17.9811 10.6566 23.4116 10.6566Z" fill="#EB4335"/>
</svg>
