<svg width="21" height="15" viewBox="0 0 21 15" fill="none" xmlns="http://www.w3.org/2000/svg">
<path d="M20.125 0.500244H3.20833C2.72508 0.500244 2.33333 0.891989 2.33333 1.37524V1.66691H0.875C0.391745 1.66691 0 2.05866 0 2.54191V12.4586C0 13.5862 0.914083 14.5002 2.04167 14.5002H19.25C20.2165 14.5002 21 13.7168 21 12.7502V1.37524C21 0.891989 20.6083 0.500244 20.125 0.500244ZM2.04167 12.7502C1.96431 12.7502 1.89013 12.7195 1.83543 12.6648C1.78073 12.6101 1.75 12.5359 1.75 12.4586V3.41691H2.33333V12.4586C2.33333 12.5359 2.3026 12.6101 2.24791 12.6648C2.19321 12.7195 2.11902 12.7502 2.04167 12.7502ZM10.6458 12.1669H5.10417C4.86256 12.1669 4.66667 11.971 4.66667 11.7294V11.4377C4.66667 11.1961 4.86256 11.0002 5.10417 11.0002H10.6458C10.8874 11.0002 11.0833 11.1961 11.0833 11.4377V11.7294C11.0833 11.971 10.8874 12.1669 10.6458 12.1669ZM18.2292 12.1669H12.6875C12.4459 12.1669 12.25 11.971 12.25 11.7294V11.4377C12.25 11.1961 12.4459 11.0002 12.6875 11.0002H18.2292C18.4708 11.0002 18.6667 11.1961 18.6667 11.4377V11.7294C18.6667 11.971 18.4708 12.1669 18.2292 12.1669ZM10.6458 8.66691H5.10417C4.86256 8.66691 4.66667 8.47102 4.66667 8.22941V7.93774C4.66667 7.69613 4.86256 7.50024 5.10417 7.50024H10.6458C10.8874 7.50024 11.0833 7.69613 11.0833 7.93774V8.22941C11.0833 8.47102 10.8874 8.66691 10.6458 8.66691ZM18.2292 8.66691H12.6875C12.4459 8.66691 12.25 8.47102 12.25 8.22941V7.93774C12.25 7.69613 12.4459 7.50024 12.6875 7.50024H18.2292C18.4708 7.50024 18.6667 7.69613 18.6667 7.93774V8.22941C18.6667 8.47102 18.4708 8.66691 18.2292 8.66691ZM18.2292 5.16691H5.10417C4.86256 5.16691 4.66667 4.97102 4.66667 4.72941V3.27108C4.66667 3.02947 4.86256 2.83358 5.10417 2.83358H18.2292C18.4708 2.83358 18.6667 3.02947 18.6667 3.27108V4.72941C18.6667 4.97102 18.4708 5.16691 18.2292 5.16691Z" fill="#8A8A8A"/>
</svg>
