<svg width="18" height="18" viewBox="0 0 18 18" fill="none" xmlns="http://www.w3.org/2000/svg">
<g clip-path="url(#clip0_23_207)">
<path d="M2 10.5C3.2045 10.5 3 11.5 3 12C3 12.5 3 13.5 4 13.5C5 13.5 5.732 12.2675 7.5 10.5L18 0V3.5C18 3.5 11.25 10.75 9 13C6.75 15.25 5.5 16.5 4 16.5C2.2435 16.5 0.5 15.1975 0.5 13C0.5 11 1.5 10.5 2 10.5Z" fill="#C1694F"/>
<path d="M13.25 18C15.0449 18 16.5 16.5449 16.5 14.75C16.5 12.9551 15.0449 11.5 13.25 11.5C11.4551 11.5 10 12.9551 10 14.75C10 16.5449 11.4551 18 13.25 18Z" fill="#DD2E44"/>
<path d="M12.505 9.356C15.127 6.5855 18 3.5 18 3.5V0L12.505 5.495V9.356ZM11 10.939L11.5 10.4145V6.5L11 7V10.939Z" fill="#FFAC33"/>
</g>
<defs>
<clipPath id="clip0_23_207">
<rect width="18" height="18" fill="white"/>
</clipPath>
</defs>
</svg>
