<svg width="21" height="17" viewBox="0 0 21 17" fill="none" xmlns="http://www.w3.org/2000/svg">
<path d="M10.2218 4.57227L3.5 10.1085V16.0836C3.5 16.2383 3.56146 16.3867 3.67085 16.4961C3.78025 16.6055 3.92862 16.667 4.08333 16.667L8.16885 16.6564C8.32305 16.6556 8.47068 16.5938 8.57945 16.4845C8.68821 16.3752 8.74927 16.2273 8.74927 16.0731V12.5836C8.74927 12.4289 8.81073 12.2805 8.92012 12.1711C9.02952 12.0617 9.17789 12.0003 9.3326 12.0003H11.6659C11.8206 12.0003 11.969 12.0617 12.0784 12.1711C12.1878 12.2805 12.2493 12.4289 12.2493 12.5836V16.0705C12.249 16.1473 12.2639 16.2233 12.2931 16.2943C12.3224 16.3653 12.3653 16.4298 12.4195 16.4842C12.4737 16.5385 12.5381 16.5816 12.6089 16.6111C12.6798 16.6405 12.7558 16.6557 12.8326 16.6557L16.9167 16.667C17.0714 16.667 17.2197 16.6055 17.3291 16.4961C17.4385 16.3867 17.5 16.2383 17.5 16.0836V10.1045L10.7796 4.57227C10.7006 4.50859 10.6022 4.47386 10.5007 4.47386C10.3992 4.47386 10.3008 4.50859 10.2218 4.57227V4.57227ZM20.8396 8.33514L17.7917 5.82279V0.772949C17.7917 0.656917 17.7456 0.545637 17.6635 0.46359C17.5815 0.381543 17.4702 0.335449 17.3542 0.335449H15.3125C15.1965 0.335449 15.0852 0.381543 15.0031 0.46359C14.9211 0.545637 14.875 0.656917 14.875 0.772949V3.42019L11.6109 0.734668C11.2976 0.4769 10.9046 0.335965 10.4989 0.335965C10.0932 0.335965 9.70017 0.4769 9.38692 0.734668L0.158226 8.33514C0.113925 8.37175 0.0772724 8.41674 0.0503632 8.46753C0.0234541 8.51831 0.00681554 8.5739 0.00139834 8.63112C-0.00401886 8.68834 0.00189144 8.74607 0.0187915 8.801C0.0356916 8.85594 0.0632503 8.907 0.0998929 8.95128L1.02958 10.0815C1.06612 10.1259 1.11107 10.1627 1.16185 10.1898C1.21263 10.2168 1.26824 10.2336 1.32551 10.2391C1.38277 10.2446 1.44057 10.2388 1.49558 10.2219C1.55059 10.2051 1.60173 10.1776 1.64609 10.1409L10.2218 3.07748C10.3008 3.0138 10.3992 2.97907 10.5007 2.97907C10.6022 2.97907 10.7006 3.0138 10.7796 3.07748L19.3557 10.1409C19.4 10.1776 19.4511 10.2051 19.506 10.222C19.5609 10.2389 19.6187 10.2448 19.6759 10.2394C19.7331 10.234 19.7887 10.2174 19.8395 10.1904C19.8903 10.1635 19.9353 10.1269 19.9719 10.0826L20.9016 8.95237C20.9382 8.90784 20.9656 8.85651 20.9823 8.80134C20.999 8.74616 21.0046 8.68823 20.9989 8.63087C20.9931 8.57351 20.9761 8.51786 20.9487 8.46711C20.9214 8.41635 20.8843 8.3715 20.8396 8.33514V8.33514Z" fill="#8A8A8A"/>
</svg>
