<svg width="21" height="24" viewBox="0 0 21 24" fill="none" xmlns="http://www.w3.org/2000/svg">
<path d="M0.5625 9C0.234375 9 0 9.28125 0 9.5625V21.75C0 23.0156 0.984375 24 2.25 24H18.75C19.9688 24 21 23.0156 21 21.75V9.5625C21 9.28125 20.7188 9 20.4375 9H0.5625ZM21 6.9375V5.25C21 4.03125 19.9688 3 18.75 3H16.5V0.5625C16.5 0.28125 16.2188 0 15.9375 0H14.0625C13.7344 0 13.5 0.28125 13.5 0.5625V3H7.5V0.5625C7.5 0.28125 7.21875 0 6.9375 0H5.0625C4.73438 0 4.5 0.28125 4.5 0.5625V3H2.25C0.984375 3 0 4.03125 0 5.25V6.9375C0 7.26562 0.234375 7.5 0.5625 7.5H20.4375C20.7188 7.5 21 7.26562 21 6.9375Z" fill="#221FD1"/>
</svg>
