<svg width="34" height="35" viewBox="0 0 34 35" fill="none" xmlns="http://www.w3.org/2000/svg">
<g clip-path="url(#clip0_161_2173)">
<path d="M12.7542 12.0312C12.7542 12.9015 12.4184 13.7361 11.8206 14.3514C11.2228 14.9668 10.4121 15.3125 9.56671 15.3125C8.72133 15.3125 7.91058 14.9668 7.31281 14.3514C6.71504 13.7361 6.37921 12.9015 6.37921 12.0312C6.37921 11.161 6.71504 10.3264 7.31281 9.71106C7.91058 9.0957 8.72133 8.75 9.56671 8.75C10.4121 8.75 11.2228 9.0957 11.8206 9.71106C12.4184 10.3264 12.7542 11.161 12.7542 12.0312Z" fill="#969696"/>
<path d="M3.1875 4.375C2.34212 4.375 1.53137 4.7207 0.933597 5.33606C0.335825 5.95141 0 6.78601 0 7.65625L0 27.3438C0 28.214 0.335825 29.0486 0.933597 29.6639C1.53137 30.2793 2.34212 30.625 3.1875 30.625H30.8125C31.6579 30.625 32.4686 30.2793 33.0664 29.6639C33.6642 29.0486 34 28.214 34 27.3438V7.65625C34 6.78601 33.6642 5.95141 33.0664 5.33606C32.4686 4.7207 31.6579 4.375 30.8125 4.375H3.1875ZM30.8125 6.5625C31.0943 6.5625 31.3645 6.67773 31.5638 6.88285C31.7631 7.08797 31.875 7.36617 31.875 7.65625V20.7812L23.8531 16.5222C23.6538 16.4194 23.4282 16.3838 23.2082 16.4203C22.9881 16.4568 22.7848 16.5636 22.627 16.7256L14.7432 24.8412L9.09075 20.965C8.88666 20.8251 8.64187 20.7622 8.39787 20.7869C8.15387 20.8117 7.92568 20.9225 7.752 21.1006L2.12925 26.25V27.4313C2.12671 27.4022 2.12529 27.373 2.125 27.3438V7.65625C2.125 7.36617 2.23694 7.08797 2.4362 6.88285C2.63546 6.67773 2.90571 6.5625 3.1875 6.5625H30.8125Z" fill="#969696"/>
</g>
<defs>
<clipPath id="clip0_161_2173">
<rect width="34" height="35" fill="white"/>
</clipPath>
</defs>
</svg>
