<svg width="29" height="30" viewBox="0 0 29 30" fill="none" xmlns="http://www.w3.org/2000/svg">
<circle cx="14.5431" cy="15.0428" r="14.4571" fill="#221FD1"/>
<path d="M19.9645 10.9768H17.8698L17.3708 9.57829C17.3363 9.48259 17.2732 9.39988 17.1899 9.34144C17.1066 9.28299 17.0074 9.25168 16.9057 9.25177H12.1804C11.9725 9.25177 11.7861 9.38269 11.7168 9.57829L11.2163 10.9768H9.12161C8.44085 10.9768 7.88947 11.5282 7.88947 12.2089V19.2321C7.88947 19.9129 8.44085 20.4643 9.12161 20.4643H19.9645C20.6452 20.4643 21.1966 19.9129 21.1966 19.2321V12.2089C21.1966 11.5282 20.6452 10.9768 19.9645 10.9768ZM20.0877 19.2321C20.0877 19.2999 20.0322 19.3553 19.9645 19.3553H9.12161C9.05384 19.3553 8.99839 19.2999 8.99839 19.2321V12.2089C8.99839 12.1411 9.05384 12.0857 9.12161 12.0857H11.9971L12.2605 11.3495L12.6132 10.3607H16.4713L16.824 11.3495L17.0874 12.0857H19.9645C20.0322 12.0857 20.0877 12.1411 20.0877 12.2089V19.2321ZM14.543 13.0714C13.1815 13.0714 12.0788 14.1742 12.0788 15.5357C12.0788 16.8972 13.1815 18 14.543 18C15.9046 18 17.0073 16.8972 17.0073 15.5357C17.0073 14.1742 15.9046 13.0714 14.543 13.0714ZM14.543 17.0143C13.7267 17.0143 13.0645 16.352 13.0645 15.5357C13.0645 14.7194 13.7267 14.0571 14.543 14.0571C15.3593 14.0571 16.0216 14.7194 16.0216 15.5357C16.0216 16.352 15.3593 17.0143 14.543 17.0143Z" fill="white"/>
</svg>
