<svg width="90" height="90" viewBox="0 0 90 90" fill="none" xmlns="http://www.w3.org/2000/svg">
<path fill-rule="evenodd" clip-rule="evenodd" d="M45 90C69.8528 90 90 69.8528 90 45C90 20.1472 69.8528 0 45 0C20.1472 0 0 20.1472 0 45C0 69.8528 20.1472 90 45 90Z" fill="#F5F5F8"/>
<mask id="mask0_158_292" style="mask-type:luminance" maskUnits="userSpaceOnUse" x="0" y="0" width="90" height="90">
<path fill-rule="evenodd" clip-rule="evenodd" d="M45 90C69.8528 90 90 69.8528 90 45C90 20.1472 69.8528 0 45 0C20.1472 0 0 20.1472 0 45C0 69.8528 20.1472 90 45 90Z" fill="white"/>
</mask>
<g mask="url(#mask0_158_292)">
<path fill-rule="evenodd" clip-rule="evenodd" d="M77.741 79.5587C75.088 75.721 71.1767 72.9315 66.6842 71.673L56.25 68.75V61.2502C60.661 57.9367 63.5577 52.7225 63.7357 46.8242C64.3522 47.096 65.0327 47.25 65.7502 47.25C68.5115 47.25 70.7502 45.0115 70.7502 42.25C70.7502 39.4885 68.5115 37.25 65.7502 37.25C65.0385 37.25 64.363 37.4007 63.7502 37.6687V36.25C63.7502 25.8945 55.3555 17.5 45.0002 17.5H45C34.6447 17.5 26.2502 25.8945 26.2502 36.25V37.6687C25.6372 37.4007 24.9617 37.25 24.2502 37.25C21.4887 37.25 19.2502 39.4885 19.2502 42.25C19.2502 45.0115 21.4887 47.25 24.2502 47.25C24.9675 47.25 25.648 47.0962 26.2647 46.8242C26.4425 52.7225 29.3392 57.9367 33.75 61.2502V68.75L23.316 71.673C18.8235 72.9315 14.9122 75.721 12.2592 79.5587L5.00024 90.06V97.5H85.0002V90.06L77.741 79.5587Z" fill="#FFCF83"/>
<path fill-rule="evenodd" clip-rule="evenodd" d="M45.0002 65C42.6882 65 40.4752 64.579 38.4302 63.8137C41.3387 65.6717 44.7927 66.75 48.5002 66.75C51.2652 66.75 53.8874 66.1467 56.2502 65.0725V61.2502C53.1164 63.6042 49.2214 65 45.0002 65Z" fill="#F7A74F"/>
<path d="M26.9022 42.9795C26.9659 42.7472 27.0002 42.5025 27.0002 42.25C27.0002 40.7312 25.7689 39.5 24.2502 39.5C23.8704 39.5 23.5087 39.577 23.1797 39.716" stroke="#00004D" stroke-width="2" stroke-linecap="round" stroke-linejoin="round"/>
<path d="M63.098 42.9795C63.0342 42.7472 63.0002 42.5025 63.0002 42.25C63.0002 40.7312 64.2315 39.5 65.7502 39.5C66.1297 39.5 66.4915 39.577 66.8207 39.716" stroke="#00004D" stroke-width="2" stroke-linecap="round" stroke-linejoin="round"/>
<path fill-rule="evenodd" clip-rule="evenodd" d="M50.0002 53.5024C50.0002 56.2639 47.7617 58.5024 45.0002 58.5024C42.2387 58.5024 40.0002 56.2639 40.0002 53.5024H50.0002Z" fill="white"/>
<path fill-rule="evenodd" clip-rule="evenodd" d="M55.25 43.0001C55.25 44.1046 54.3545 45.0001 53.25 45.0001C52.1455 45.0001 51.25 44.1046 51.25 43.0001C51.25 41.8956 52.1455 41.0001 53.25 41.0001C54.3545 41.0001 55.25 41.8956 55.25 43.0001" fill="#00004D"/>
<path fill-rule="evenodd" clip-rule="evenodd" d="M38.75 43.0001C38.75 44.1046 37.8545 45.0001 36.75 45.0001C35.6455 45.0001 34.75 44.1046 34.75 43.0001C34.75 41.8956 35.6455 41.0001 36.75 41.0001C37.8545 41.0001 38.75 41.8956 38.75 43.0001" fill="#00004D"/>
<path d="M44.9996 41.0001L47.4996 49.5001L43.9996 50.0001" stroke="#00004D" stroke-width="2" stroke-linecap="round" stroke-linejoin="round"/>
<path fill-rule="evenodd" clip-rule="evenodd" d="M64.9998 37.3122V36.25C64.9998 32.4135 63.9175 28.8305 62.0448 25.7862C60.309 22.965 57.8915 20.611 55.0235 18.946C52.0758 17.2345 48.6535 16.25 44.9998 16.25C41.3458 16.25 37.9238 17.2345 34.976 18.946C32.108 20.611 29.6905 22.965 27.9548 25.7862C26.082 28.8305 24.9998 32.4135 24.9998 36.25V37.3122C26.0428 37.4697 26.9795 37.946 27.7068 38.643C30.0103 36.331 31.8653 33.5725 33.1273 30.5057C36.6593 32.4155 40.7028 33.5 44.9998 33.5C49.2968 33.5 53.3403 32.4155 56.8723 30.5057C58.134 33.5725 59.9895 36.331 62.2928 38.643C63.02 37.946 63.9568 37.4697 64.9998 37.3122" fill="#00004D"/>
<path fill-rule="evenodd" clip-rule="evenodd" d="M85 90.06L77.7408 79.5587C75.088 75.7212 71.1767 72.9315 66.684 71.673L56.25 68.75C56.25 74.9632 51.2133 80 45 80V80C38.7867 80 33.75 74.9632 33.75 68.75L23.3158 71.673C18.8233 72.9315 14.912 75.7212 12.259 79.5587L5 90.06V97.5H85V90.06Z" fill="#FB344F"/>
</g>
</svg>
