<svg width="92" height="54" viewBox="0 0 92 54" fill="none" xmlns="http://www.w3.org/2000/svg">
<g clip-path="url(#clip0_28_366)">
<path d="M21.5019 43.5594C21.5019 43.5594 23.374 44.9651 22.3173 47.0508C21.2605 49.1366 24.129 52.606 24.129 52.606L24.0376 52.595C20.1919 52.0858 18.2787 48.7831 20.4196 46.3302C21.2221 45.4187 21.8739 44.3487 21.5019 43.5594Z" fill="#221FD1"/>
<path d="M21.5019 43.5594C21.5019 43.5594 22.5586 45.2828 21.5019 46.6884C20.4451 48.094 21.319 52.0418 24.129 52.606" stroke="#535461" stroke-miterlimit="10"/>
<path d="M18.1707 49.2457C18.1707 49.2457 20.307 48.9904 20.5017 50.4276C20.6964 51.8647 24.6097 52.0645 24.6097 52.0645L24.5366 52.1008C21.3052 53.6938 18.2164 53.1152 18.6863 51.0027C18.8508 50.2148 18.8408 49.4248 18.1707 49.2457Z" fill="#221FD1"/>
<path opacity="0.2" d="M18.1707 49.2457C18.1707 49.2457 20.307 48.9904 20.5017 50.4276C20.6964 51.8647 24.6097 52.0645 24.6097 52.0645L24.5366 52.1008C21.3052 53.6938 18.2164 53.1152 18.6863 51.0027C18.8508 50.2148 18.8408 49.4248 18.1707 49.2457Z" fill="#F5F5F5"/>
<path d="M18.1707 49.2457C18.1707 49.2457 19.8289 49.5203 19.6927 50.6513C19.5565 51.7824 22.1553 53.1407 24.6097 52.0652" stroke="#535461" stroke-miterlimit="10"/>
<path opacity="0.1" d="M81.0168 24.9873C82.0625 26.5995 81.397 28.9124 82.8779 30.2302C83.9639 31.1966 85.7665 31.1911 86.9978 32.0064C87.9558 32.6427 88.433 33.6838 88.8672 34.6721L90.9769 39.4765C91.9377 41.6645 92.7585 44.4812 90.8234 46.0852C89.6634 47.046 87.911 47.1552 86.3268 47.0529C74.8611 46.3124 65.6386 37.6302 54.2122 36.5095C46.136 35.7167 38.1567 38.8354 30.0339 38.6632C25.7376 38.5719 21.5427 37.565 17.3972 36.5602C14.2088 35.7895 10.6702 34.7758 9.15005 32.1773C8.47087 31.016 8.25971 29.6132 7.25053 28.6585C6.47719 27.9262 5.35922 27.5796 4.39849 27.049C0.213679 24.7354 -0.266231 19.5605 0.0985008 15.2029C0.30052 12.7857 0.642398 10.3107 1.91576 8.16527C3.18912 6.01979 5.58501 4.24562 8.32004 4.17562C10.0495 4.131 11.7023 4.75008 13.3851 5.09599C15.068 5.4419 17.0416 5.4522 18.3049 4.40966C19.3415 3.5538 19.6669 2.17907 20.7035 1.32116C21.5107 0.654727 22.6369 0.39598 23.7256 0.237437C29.5805 -0.614989 35.8175 0.864745 40.4091 4.19483C41.5252 5.00402 42.5883 5.93743 43.9522 6.35266C45.7685 6.90516 47.754 6.43708 49.6745 6.44875C56.45 6.48993 61.0452 11.9957 65.8205 15.4665C68.6122 17.496 71.3125 17.9332 74.3419 19.2852C76.2167 20.1226 79.886 23.2447 81.0168 24.9873Z" fill="#221FD1"/>
<path d="M27.8063 24.4869H23.7075V52.6019H27.8063V24.4869Z" fill="url(#paint0_linear_28_366)"/>
<path d="M32.2774 53.8608H19.4222L23.9873 51.6926H27.4335L32.2774 53.8608Z" fill="url(#paint1_linear_28_366)"/>
<path d="M5.63647 10.0802C5.63647 10.0802 22.9644 -2.78647 45.4114 10.0802V21.1988C45.4114 21.1988 27.8065 29.1719 5.63739 21.1988L5.63647 10.0802Z" fill="url(#paint2_linear_28_366)"/>
<path d="M6.89429 10.3629C6.89429 10.3629 23.1244 -1.69184 44.1535 10.3629V20.7801C44.1535 20.7801 27.662 28.2488 6.89429 20.7801V10.3629Z" fill="url(#paint3_linear_28_366)"/>
<path d="M30.4135 16.5145H20.5402V22.8089H30.4135V16.5145Z" fill="url(#paint4_linear_28_366)"/>
<path d="M29.5751 17.0485H21.3782V22.2742H29.5751V17.0485Z" fill="url(#paint5_linear_28_366)"/>
<g opacity="0.1">
<path opacity="0.1" d="M28.9325 32.4019L25.8181 28.3731L23.0557 32.2605L20.6589 28.1864L18.1652 32.3346L18.0783 32.3085C19.0838 30.104 18.0865 23.8549 18.0783 23.7918L18.0399 23.5577L20.6616 28.0141L22.8472 24.3765L25.8208 28.2248L28.5403 24.3923L30.8439 28.3394L33.0798 23.8254L33.6393 23.7417L33.6265 23.7925C33.61 23.857 32.0825 29.9008 32.9509 31.9502L33.1575 32.3044L33.0753 32.3367C32.9859 32.2223 32.9147 32.1004 32.8632 31.9736L30.8521 28.5261L28.9325 32.4019ZM25.8693 28.2983L28.9133 32.2385L30.7973 28.4355L28.5321 24.5543L25.8693 28.2983ZM20.7064 28.0985L23.0557 32.1006L25.7596 28.2996L22.8518 24.5296L20.7064 28.0985ZM18.1999 24.0107C18.3589 25.0869 18.9778 29.6778 18.3233 31.8933L20.6086 28.0985L18.1999 24.0107ZM30.8987 28.4342L32.7334 31.5776C32.1758 29.3401 33.3733 24.4321 33.5232 23.8323L33.1511 23.8879L30.8987 28.4342Z" fill="url(#paint6_linear_28_366)"/>
</g>
<g opacity="0.1">
<path opacity="0.1" d="M20.818 32.4107L18.5071 28.0669L18.594 28.0409L20.8226 32.2275L23.0558 28.4012L20.0785 24.2942L20.1599 24.2605L23.1024 28.3202L25.3337 24.4987H25.3612L31.9867 24.0286L25.8493 32.2529L23.1134 28.4781L20.818 32.4107ZM23.1609 28.3978L25.8502 32.1081L31.8203 24.1089L25.3996 24.5646L23.1609 28.3978Z" fill="url(#paint7_linear_28_366)"/>
</g>
<g opacity="0.1">
<path opacity="0.1" d="M30.6996 32.1952L30.6521 32.1266L25.1564 24.1535L25.2396 24.1212L30.6877 32.025L32.7353 28.0415L32.8222 28.0669L30.6996 32.1952Z" fill="url(#paint8_linear_28_366)"/>
</g>
<path d="M25.6636 22.7389C21.2905 22.7389 17.7465 23.1775 17.7465 23.7183C17.7465 24.2591 21.2914 24.6977 25.6636 24.6977C30.0358 24.6977 33.5807 24.2591 33.5807 23.7183C33.5807 23.1775 30.0358 22.7389 25.6636 22.7389ZM25.6636 24.2776C21.6506 24.2776 18.3982 23.9956 18.3982 23.6483C18.3982 23.301 21.6506 23.0196 25.6636 23.0196C29.6765 23.0196 32.928 23.3003 32.928 23.6483C32.928 23.9963 29.6756 24.2776 25.6636 24.2776Z" fill="url(#paint9_linear_28_366)"/>
<g opacity="0.2">
<path opacity="0.2" d="M25.6636 22.7389C21.2905 22.7389 17.7465 23.1775 17.7465 23.7183C17.7465 24.2591 21.2914 24.6977 25.6636 24.6977C30.0358 24.6977 33.5807 24.2591 33.5807 23.7183C33.5807 23.1775 30.0358 22.7389 25.6636 22.7389ZM25.6636 24.2776C21.6506 24.2776 18.3982 23.9956 18.3982 23.6483C18.3982 23.301 21.6506 23.0196 25.6636 23.0196C29.6765 23.0196 32.928 23.3003 32.928 23.6483C32.928 23.9963 29.6756 24.2776 25.6636 24.2776Z" fill="url(#paint10_linear_28_366)"/>
</g>
<path d="M25.6636 22.5295C21.2905 22.5295 17.7465 22.9681 17.7465 23.5089C17.7465 24.0498 21.2914 24.4883 25.6636 24.4883C30.0358 24.4883 33.5807 24.0498 33.5807 23.5089C33.5807 22.9681 30.0358 22.5295 25.6636 22.5295ZM25.6636 24.0683C21.6506 24.0683 18.3982 23.7862 18.3982 23.4389C18.3982 23.0916 21.6515 22.8096 25.6636 22.8096C29.6756 22.8096 32.928 23.0882 32.928 23.4382C32.928 23.7883 29.6756 24.0676 25.6636 24.0676V24.0683Z" fill="url(#paint11_linear_28_366)"/>
<path d="M27.7635 24.5735H23.7414V52.164H27.7635V24.5735Z" fill="#E8EAF1"/>
<path d="M32.1512 53.3994H19.5364L24.0156 51.2717H27.3978L32.1512 53.3994Z" fill="#E8EAF1"/>
<path d="M6.00757 10.4351C6.00757 10.4351 23.0101 -2.19346 45.0402 10.4351V21.3478C45.0402 21.3478 27.7635 29.172 6.00757 21.3478V10.4351Z" fill="#E8EAF1"/>
<path d="M7.24164 10.713C7.24164 10.713 23.1691 -1.11732 43.8062 10.713V20.9352C43.8062 20.9352 27.6264 28.2646 7.24164 20.9352V10.713Z" fill="#F3F5F7"/>
<path d="M30.323 16.7493H20.6334V22.9263H30.323V16.7493Z" fill="white"/>
<path d="M29.5003 17.2736H21.4561V22.4019H29.5003V17.2736Z" fill="#F3F5F7"/>
<path opacity="0.1" d="M28.8696 32.3407L25.8128 28.3847L23.097 32.2014L20.745 28.2035L18.3025 32.2749L18.2175 32.2495C19.2084 30.0855 18.2257 23.9531 18.2175 23.8913L18.18 23.6614L20.7532 28.0347L22.8986 24.4658L25.8165 28.2406L28.4921 24.4795L30.7527 28.3531L32.9466 23.9229L33.495 23.8405L33.4822 23.8906C33.4658 23.9544 31.9666 29.885 32.8195 31.8967L33.0224 32.244L32.9411 32.2755C32.8533 32.1633 32.7834 32.0438 32.7327 31.9193L30.7582 28.5357L28.8696 32.3407ZM25.864 28.3133L28.8513 32.1801L30.6997 28.4486L28.4775 24.6394L25.864 28.3133ZM20.7962 28.1198L23.1052 32.0456L25.7562 28.3154L22.8996 24.6174L20.7962 28.1198ZM18.3363 24.1082C18.4926 25.1638 19.0996 29.6675 18.457 31.8438L20.6956 28.1198L18.3363 24.1082ZM30.7984 28.4465L32.5983 31.5302C32.0498 29.3339 33.2254 24.5179 33.3735 23.9297L33.0078 23.9846L30.7984 28.4465Z" fill="black"/>
<path opacity="0.1" d="M20.9057 32.3496L18.6378 28.0868L18.7228 28.0614L20.9102 32.1719L23.1041 28.4149L20.1789 24.3848L20.2594 24.3518L23.1471 28.3325L25.3409 24.5824H25.3675L31.8695 24.1212L25.8428 32.1945L23.158 28.4883L20.9057 32.3496ZM23.2047 28.4115L25.8437 32.0525L31.7032 24.2022L25.4022 24.649L23.2047 28.4115Z" fill="black"/>
<path opacity="0.1" d="M30.6036 32.1382L30.556 32.0702L25.1628 24.246L25.2441 24.2145L30.5908 31.9707L32.6009 28.0614L32.6859 28.0861L30.6036 32.1382Z" fill="black"/>
<path d="M25.661 22.8577C21.3702 22.8577 17.8911 23.288 17.8911 23.8185C17.8911 24.3491 21.3702 24.7794 25.661 24.7794C29.9519 24.7794 33.431 24.3491 33.431 23.8185C33.431 23.288 29.9519 22.8577 25.661 22.8577ZM25.661 24.3676C21.723 24.3676 18.5309 24.0931 18.5309 23.7499C18.5309 23.4067 21.723 23.1322 25.661 23.1322C29.599 23.1322 32.7911 23.4067 32.7911 23.7499C32.7911 24.0931 29.599 24.3676 25.661 24.3676Z" fill="#5F546F"/>
<path opacity="0.2" d="M25.661 22.8577C21.3702 22.8577 17.8911 23.288 17.8911 23.8185C17.8911 24.3491 21.3702 24.7794 25.661 24.7794C29.9519 24.7794 33.431 24.3491 33.431 23.8185C33.431 23.288 29.9519 22.8577 25.661 22.8577ZM25.661 24.3676C21.723 24.3676 18.5309 24.0931 18.5309 23.7499C18.5309 23.4067 21.723 23.1322 25.661 23.1322C29.599 23.1322 32.7911 23.4067 32.7911 23.7499C32.7911 24.0931 29.599 24.3676 25.661 24.3676Z" fill="black"/>
<path d="M25.661 22.6517C21.3702 22.6517 17.8911 23.0821 17.8911 23.6126C17.8911 24.1431 21.3702 24.5735 25.661 24.5735C29.9519 24.5735 33.431 24.1431 33.431 23.6126C33.431 23.0821 29.9519 22.6517 25.661 22.6517ZM25.661 24.1617C21.723 24.1617 18.5309 23.8871 18.5309 23.544C18.5309 23.2008 21.723 22.9263 25.661 22.9263C29.599 22.9263 32.7911 23.2008 32.7911 23.544C32.7911 23.8871 29.599 24.1617 25.661 24.1617Z" fill="#5F546F"/>
<path opacity="0.1" d="M54.0595 50.5415C51.5832 51.0638 48.8546 50.5298 46.4157 51.1434C46.201 51.189 46.0003 51.266 45.8252 51.3699C45.242 51.7522 45.4724 52.4982 45.9934 52.9279C46.8262 53.6142 48.1352 53.8283 49.3646 53.9203C55.3704 54.3685 61.377 52.7378 67.39 53.0809C68.284 53.1324 69.3261 53.188 69.9258 52.6877C70.3682 52.3191 70.3984 51.7508 70.1799 51.2827C69.7786 50.4235 68.6698 49.8366 67.5025 49.5902C66.3352 49.3439 65.0984 49.3843 63.8862 49.4248C62.2408 49.4811 60.5817 49.4653 58.9409 49.547C57.1867 49.6376 55.7214 50.1935 54.0595 50.5415Z" fill="#221FD1"/>
<path d="M68.3959 40.3151C67.756 40.2465 66.5731 39.4915 66.5731 39.4915C66.4874 39.3953 66.3702 39.3171 66.2327 39.2646C66.0952 39.2121 65.9421 39.187 65.7879 39.1916L64.6133 37.9514C64.158 37.3639 63.6178 36.8159 63.0026 36.3172C62.9021 36.2335 62.7982 36.1523 62.6909 36.0736C62.3741 35.8371 62.0337 35.6191 61.6726 35.4216C61.435 35.2886 61.2108 35.1427 61.0016 34.9851C60.8083 34.8405 60.6252 34.6884 60.4532 34.5293L59.6359 33.67L59.5811 33.6117C59.602 33.5278 59.6075 33.4421 59.5976 33.3571C59.5976 33.3372 59.5921 33.3173 59.5884 33.2974L56.2153 30.3201L55.2098 28.7799C55.1979 28.7875 55.1577 28.8129 55.0946 28.8486L55.0763 28.8094V28.7916V28.6619C55.0712 27.5958 55.4236 26.546 56.1011 25.6091C56.3286 25.2946 56.4477 24.9423 56.4475 24.5844C56.4475 24.5556 56.4475 24.5267 56.4475 24.4979L56.4301 24.4835C56.3982 24.4567 56.325 24.3949 56.2309 24.3037C56.2428 24.2858 56.2556 24.2673 56.2674 24.2501C56.6861 23.6722 57.2684 23.5734 57.2684 23.5734C59.2283 23.3675 60.6415 22.3758 60.6415 22.3758C62.104 21.7581 61.8298 21.209 61.8298 21.209L60.508 18.8137L59.6853 17.5474L59.4577 16.9654C59.3831 16.5783 59.2778 16.1949 59.1423 15.8172C58.9476 15.2599 57.9777 15.1013 57.5097 15.5577C57.4987 15.5687 57.4869 15.5804 57.4759 15.5927C57.2687 15.8176 57.1806 16.0924 57.229 16.3634C57.2774 16.6344 57.4586 16.8821 57.7373 17.0581C58.1944 17.3504 58.592 17.6504 58.592 17.6504C59.4147 17.8213 59.9632 21.0038 59.9632 21.0038L59.4147 21.2783C58.9941 21.2947 58.5826 21.3763 58.2061 21.5181C57.8296 21.6598 57.4963 21.8586 57.2273 22.1019H55.5069C55.5069 22.0964 55.5115 22.0909 55.5142 22.0848L55.229 22.0367L54.4063 21.8994L54.1019 21.848L54.0973 21.8624L54.0114 21.848V21.8569C53.8959 21.7194 53.7921 21.5766 53.7006 21.4293C53.7252 21.4321 53.7501 21.4321 53.7747 21.4293C53.7811 21.419 53.7865 21.4087 53.7911 21.3984H53.8204C53.9474 21.1925 53.8377 20.9351 53.9602 20.7251C54.0264 20.6365 54.0996 20.551 54.1796 20.4691C54.3624 20.2323 54.3405 19.9358 54.2866 19.6641C54.2281 19.3717 54.1385 19.0731 53.9145 18.8295C53.6906 18.5858 53.3039 18.4074 52.909 18.4458C52.5982 18.4767 52.3258 18.6366 52.0132 18.6517C51.7919 18.6613 51.5799 18.5961 51.3733 18.5453C51.1471 18.4906 50.9149 18.4509 50.6795 18.4266C50.5232 18.4101 50.3394 18.4081 50.2343 18.4952L50.2252 18.5042C50.2119 18.5118 50.1997 18.5203 50.1886 18.5296C50.1473 18.5682 50.1163 18.6125 50.0972 18.66L49.8952 19.0779C49.8848 19.0921 49.8793 19.1081 49.8793 19.1243C49.8793 19.1405 49.8848 19.1564 49.8952 19.1706C49.9134 19.1877 49.9454 19.1926 49.9701 19.2042C50.1301 19.2818 49.9153 19.4733 50.0478 19.5673C50.1273 19.6236 50.2974 19.6297 50.4656 19.6291C50.3125 19.8101 50.2199 20.0162 50.1955 20.2298C50.1711 20.4435 50.2156 20.6584 50.3253 20.8564C50.435 21.0544 50.6066 21.2296 50.8256 21.3672C51.0447 21.5048 51.3046 21.6007 51.5835 21.6469C51.5835 21.6695 51.5835 21.6922 51.5835 21.7155C51.5879 21.8965 51.5689 22.0774 51.5269 22.2557L51.3934 22.2646C51.1713 22.2735 50.7224 22.2865 50.3303 22.2728C50.199 22.2689 50.068 22.2595 49.9381 22.2447C49.9381 22.2447 49.9226 22.3696 49.8924 22.5611L49.801 22.5803C48.9485 22.7642 48.2082 23.1657 47.7077 23.7155L45.6564 24.6077C45.6564 24.6077 44.7423 24.4368 42.1014 26.1478L40.1873 26.9028C40.1873 26.9028 37.263 27.5493 37.8097 28.1986C38.3563 28.8479 41.0913 27.4121 41.0913 27.4121L42.1883 27.036L45.5156 25.9378C45.5156 25.9378 46.6126 25.3888 47.4298 25.1829C48.247 24.977 49.0706 24.3593 49.0706 24.3593L49.2763 24.351L49.3677 24.3469C49.3541 24.3653 49.3391 24.3832 49.3229 24.4004C49.3147 24.41 49.3056 24.419 49.2964 24.4272V29.9364L49.2818 30.0895H49.2882L49.0688 32.3303C49.0688 32.3303 49.1145 33.3598 48.9317 33.9384C48.7489 34.517 49.0688 36.8814 49.0688 36.8814C49.0688 36.8814 49.1885 36.8814 49.3833 36.8711L49.3778 36.9397L49.2973 37.9081C49.2973 37.9081 49.1438 38.2815 50.0286 38.4757C50.2313 38.5198 50.4241 38.5862 50.6009 38.6727L51.621 39.1744L52.6695 39.6549L52.8816 39.9891L52.8916 40.0056L52.6686 39.9033C52.6686 39.9033 52.4858 40.2465 53.079 40.6905C53.3012 40.8398 53.4745 41.0255 53.5855 41.2332C53.6964 41.4409 53.7421 41.6651 53.7189 41.8882C53.7189 41.8882 53.8103 42.7118 54.3588 42.5059C54.3588 42.5059 55.2244 42.3686 55.1815 41.2396C55.1815 41.2396 54.8359 40.2993 55.2381 39.9019C55.2491 39.891 55.2607 39.8804 55.2729 39.8704C55.7299 39.4943 55.1358 38.9095 55.1358 38.9095C55.1358 38.9095 54.08 38.5897 54.0205 39.1209L53.9767 39.1065C53.7865 39.0379 53.4456 38.8711 53.0845 38.4648C53.0845 38.4648 52.4922 37.3358 51.5808 37.2328L51.7334 36.5828L51.7508 36.508C52.0643 36.3968 52.3185 36.2534 52.4464 36.0688L52.4519 36.0605V36.0571V36.0523V36.0475V36.0427L52.4565 36.0358V36.0303L52.4611 36.0228L52.4666 36.0146V36.0077L52.473 35.9981L52.4903 35.9912L52.4967 35.9809L52.5022 35.972L52.5095 35.9603L52.5159 35.9507L52.5232 35.9391L52.5315 35.9267L52.5379 35.9171L52.547 35.9027L52.5534 35.8931L52.5927 35.8292L52.5982 35.821L52.6092 35.8032L52.6174 35.7901L52.6293 35.7702L52.6366 35.7586L52.6503 35.7352L52.6558 35.7256L52.6704 35.7016L52.6777 35.6899L52.6923 35.6652L52.6987 35.6542L52.7143 35.6282L52.7207 35.6179L52.7371 35.5904L52.7426 35.5801L52.7591 35.5513L52.7646 35.5417L52.7828 35.5108V35.5053C53.0744 34.996 53.441 34.2637 53.4227 33.83C53.4251 33.7954 53.4251 33.7608 53.4227 33.7263H53.4118V33.7195C53.4118 33.7051 53.4044 33.6913 53.399 33.6783L55.8597 34.0901L57.3223 35.2877H57.3287H57.3342H57.3406H57.3479H57.3552L57.3644 35.2843H57.3726L57.3845 35.2802L57.3936 35.2768L57.4064 35.2719L57.4174 35.2678L57.4329 35.2617L57.443 35.2575L57.4604 35.2507L57.4713 35.2459L57.4896 35.239L57.5024 35.2335L57.5225 35.2253L57.5353 35.2205L57.5563 35.2115L57.571 35.2054L57.5938 35.1958L57.6094 35.1676L57.635 35.1566L57.6487 35.1512L57.6752 35.1402L57.6907 35.1333L57.7181 35.1216L57.7328 35.1148L57.762 35.1017L57.7776 35.0949L57.8077 35.0811L57.8223 35.0743L57.8543 35.0599H57.8598L57.911 35.1045L58.5509 35.6618C59.1908 35.8677 60.6479 36.8938 60.6479 36.8938C60.8161 37.1964 61.5282 37.6288 61.892 37.8361C61.996 37.8938 62.1064 37.9448 62.222 37.9884C62.4212 38.066 62.7019 38.2506 62.9587 38.4373C63.2939 38.686 63.6536 38.9155 64.0347 39.1236C64.3871 39.3254 64.7005 39.5628 64.9661 39.8292L64.9972 39.8594C64.7797 40.4085 66.0247 40.9664 66.0247 40.9664C66.4817 40.8978 67.8931 41.8587 67.8931 41.8587C67.8931 41.8587 69.2149 42.6459 69.7616 41.79C70.3082 40.9342 68.3959 40.3151 68.3959 40.3151ZM65.9808 39.3982L65.798 39.2039C65.8476 39.2215 65.8903 39.2484 65.9219 39.2821C65.9535 39.3158 65.9728 39.3551 65.9781 39.3961L65.9808 39.3982Z" fill="url(#paint12_linear_28_366)"/>
<path d="M54.6135 22.5976C54.6135 22.5976 50.0018 24.6147 50.9872 23.4713C51.4134 22.9897 51.6364 22.4229 51.6271 21.8447C51.6269 21.6559 51.5931 21.468 51.5266 21.286L53.4517 20.6134C53.4183 20.8114 53.442 21.0124 53.5211 21.203C53.7908 21.9181 54.6135 22.5976 54.6135 22.5976Z" fill="#DB8B8B"/>
<path opacity="0.1" d="M53.5186 21.2036C53.3359 21.4486 53.0534 21.6432 52.7124 21.7587C52.3715 21.8742 51.9902 21.9046 51.6246 21.8453C51.6244 21.6565 51.5906 21.4686 51.524 21.2866L53.4492 20.614C53.4158 20.812 53.4395 21.0131 53.5186 21.2036Z" fill="black"/>
<path d="M51.9946 21.8075C52.9588 21.8075 53.7405 21.2206 53.7405 20.4966C53.7405 19.7726 52.9588 19.1857 51.9946 19.1857C51.0303 19.1857 50.2486 19.7726 50.2486 20.4966C50.2486 21.2206 51.0303 21.8075 51.9946 21.8075Z" fill="#DB8B8B"/>
<path opacity="0.1" d="M50.8787 19.7994C51.0474 19.8253 51.1964 19.8991 51.2946 20.0053C51.4098 20.1426 51.407 20.3306 51.5688 20.4377C51.6909 20.5054 51.8436 20.5345 51.9939 20.5187C52.1425 20.5025 52.293 20.4985 52.4427 20.507C52.685 20.5365 52.8833 20.671 53.0177 20.8248C53.1399 20.9842 53.2486 21.1493 53.3432 21.3189C53.3818 21.3862 53.437 21.4475 53.5059 21.4994C53.5406 21.5252 53.583 21.5445 53.6295 21.5557C53.6761 21.5669 53.7254 21.5697 53.7737 21.564C53.8989 21.3581 53.7911 21.1082 53.9108 20.903C53.9756 20.8161 54.0473 20.7322 54.1256 20.6518C54.3085 20.4192 54.2838 20.1282 54.2299 19.8612C54.1723 19.5736 54.0845 19.2805 53.8642 19.0417C53.6439 18.8028 53.2645 18.6299 52.8806 18.6649C52.5753 18.6951 52.3074 18.8523 52.0003 18.866C51.7837 18.8756 51.5743 18.8118 51.3677 18.7617C51.1457 18.7079 50.9178 18.6689 50.6867 18.645C50.5331 18.6292 50.353 18.6265 50.2498 18.7136C50.2087 18.7514 50.1777 18.7947 50.1583 18.8413L49.96 19.2531C49.9497 19.2671 49.9444 19.2828 49.9444 19.2987C49.9444 19.3147 49.9497 19.3304 49.96 19.3444C49.9783 19.3608 50.0093 19.3656 50.0331 19.378C50.1903 19.4542 49.9792 19.6422 50.109 19.7349C50.2388 19.8275 50.6968 19.7671 50.8787 19.7994Z" fill="black"/>
<path d="M50.9232 19.7657C51.092 19.7917 51.2409 19.8654 51.3392 19.9716C51.4543 20.1089 51.4516 20.2969 51.6134 20.404C51.7355 20.4718 51.8881 20.5008 52.0385 20.485C52.1871 20.4688 52.3376 20.4648 52.4873 20.4733C52.7295 20.5028 52.9279 20.6374 53.0623 20.7911C53.1845 20.9505 53.2931 21.1156 53.3877 21.2853C53.4263 21.3526 53.4815 21.4138 53.5504 21.4658C53.5852 21.4915 53.6276 21.5108 53.6741 21.522C53.7206 21.5332 53.77 21.536 53.8182 21.5303C53.9435 21.3244 53.8356 21.0745 53.9554 20.8693C54.0201 20.7824 54.0918 20.6985 54.1702 20.6181C54.353 20.3855 54.3283 20.0945 54.2744 19.8275C54.2168 19.5399 54.129 19.2468 53.9087 19.008C53.6884 18.7692 53.3091 18.5962 52.9252 18.6312C52.6198 18.6614 52.352 18.8186 52.0449 18.8323C51.8282 18.8419 51.6189 18.7781 51.4123 18.728C51.1903 18.6742 50.9624 18.6352 50.7313 18.6113C50.5777 18.5955 50.3976 18.5928 50.2943 18.6799C50.2533 18.7177 50.2223 18.761 50.2029 18.8076L50.0046 19.2194C49.9943 19.2334 49.989 19.2491 49.989 19.265C49.989 19.281 49.9943 19.2967 50.0046 19.3107C50.0228 19.3271 50.0539 19.3319 50.0777 19.3443C50.2349 19.4205 50.0238 19.6085 50.1536 19.7012C50.2834 19.7938 50.7413 19.7334 50.9232 19.7657Z" fill="#472727"/>
<path d="M60.5235 22.4967C60.5235 22.4967 59.1359 23.4713 57.2107 23.6731C57.2107 23.6731 56.6385 23.7705 56.2271 24.3381C56.0773 24.5515 55.971 24.7805 55.9118 25.0176L53.8459 22.3896L53.7179 22.227H57.165C57.4297 21.9884 57.7573 21.7936 58.1271 21.6548C58.497 21.516 58.9011 21.4363 59.3141 21.4205L59.8516 21.1515C59.8516 21.1515 59.3141 18.0252 58.5088 17.8571C58.5088 17.8571 58.1157 17.5619 57.6687 17.2751C57.3943 17.1021 57.2158 16.8584 57.1683 16.5918C57.1208 16.3251 57.2076 16.0548 57.4118 15.8338C57.4228 15.8221 57.4338 15.8104 57.4457 15.7994C57.9027 15.3513 58.858 15.5071 59.0499 16.0548C59.1832 16.4268 59.2867 16.8045 59.3598 17.1858L59.5838 17.7576L60.39 19.0012L61.6881 21.3539C61.6881 21.3539 61.9559 21.892 60.5235 22.4967Z" fill="#DB8B8B"/>
<path d="M50.2259 22.6311L49.9571 24.4156L49.3529 24.441L49.1509 24.4492C49.1509 24.4492 48.3447 25.0545 47.5393 25.2556C46.734 25.4567 45.659 25.9955 45.659 25.9955L42.391 27.0689L41.3169 27.4389C41.3169 27.4389 38.6304 28.8534 38.0929 28.2117C37.5554 27.57 40.4238 26.9317 40.4238 26.9317L42.3042 26.1918C44.9012 24.511 45.7961 24.6819 45.7961 24.6819L47.8072 23.8082C48.2986 23.2681 49.0257 22.8736 49.863 22.6929C49.9818 22.6656 50.1031 22.645 50.2259 22.6311Z" fill="#DB8B8B"/>
<path opacity="0.1" d="M56.2273 24.338C56.0774 24.5514 55.9711 24.7804 55.9119 25.0175L53.846 22.3895C53.8953 22.3383 53.9384 22.2838 53.9749 22.2269C54.0278 22.1463 54.0694 22.0619 54.0992 21.975L54.3981 22.0258L55.2071 22.163L55.4878 22.2104C55.4878 22.2159 55.4823 22.2214 55.4804 22.2269C55.1038 23.0573 55.8141 23.9269 56.2273 24.338Z" fill="black"/>
<path opacity="0.1" d="M50.226 22.6311L49.9573 24.4156L49.353 24.441C49.6099 24.0978 49.7845 23.1891 49.864 22.6956C49.9824 22.6675 50.1034 22.6459 50.226 22.6311Z" fill="black"/>
<path d="M56.0645 25.6393C55.3928 26.5684 55.0468 27.6104 55.059 28.6674V28.7992V28.8164C55.059 28.8164 55.5517 29.8246 55.059 29.8246C54.5662 29.8246 54.611 30.329 53.9849 30.4299C53.3587 30.5308 51.1639 31.2364 50.4929 30.9344C49.822 30.6324 49.3741 29.9934 49.3741 29.9934V24.5137C49.3832 24.5055 49.3923 24.4966 49.4006 24.487C49.7872 24.0752 50.0011 22.3594 50.0011 22.3594C50.1289 22.3741 50.2577 22.3835 50.3869 22.3875C50.7717 22.4012 51.2096 22.3875 51.4308 22.3793L51.5679 22.3731C51.9546 22.6003 52.4821 22.6332 52.7435 22.6332C52.8353 22.6335 52.9269 22.6385 53.0177 22.6483C53.7737 22.7279 54.0041 21.9736 54.0041 21.9736L54.303 22.0244L55.112 22.1617L55.3926 22.209C54.8889 23.2804 56.2153 24.4259 56.3826 24.5645L56.4 24.5789C56.4142 24.9484 56.2985 25.3141 56.0645 25.6393Z" fill="#221FD1"/>
<path opacity="0.3" d="M50.3878 22.3903C50.3878 22.8357 50.2461 24.312 49.3759 24.5254V24.5138C49.385 24.5055 49.3941 24.4966 49.4024 24.487C49.789 24.0752 50.0029 22.3594 50.0029 22.3594C50.1304 22.375 50.2588 22.3853 50.3878 22.3903Z" fill="white"/>
<path opacity="0.3" d="M56.387 24.5666C54.7489 24.5035 54.9427 22.8947 55.1164 22.1644L55.397 22.2118C54.8933 23.2825 56.2188 24.428 56.387 24.5666Z" fill="white"/>
<g opacity="0.1">
<path opacity="0.1" d="M56.4044 24.6147C56.4039 24.6112 56.4019 24.608 56.3988 24.6054C56.3957 24.6028 56.3915 24.601 56.387 24.6003C56.0213 24.5317 56.4272 24.6312 56.0213 24.5317C56.0058 24.5276 56.0433 24.4816 56.0433 24.4816C56.0556 24.8506 55.9383 25.2156 55.7032 25.5399C55.0316 26.4689 54.6856 27.5109 54.6977 28.568V28.6998V28.7162C54.6977 28.7162 55.1904 29.7245 54.6977 29.7245C54.205 29.7245 54.2498 30.2289 53.6236 30.3298C53.0495 30.4225 51.1619 31.0216 50.3328 30.8892C50.384 30.9173 50.4361 30.9441 50.49 30.9681C51.1619 31.2708 53.3558 30.5645 53.9819 30.4636C54.6081 30.3628 54.5642 29.8583 55.056 29.8583C55.5478 29.8583 55.056 28.8501 55.056 28.8501V28.8329V28.7011C55.0439 27.6441 55.3899 26.6021 56.0616 25.673C56.2976 25.349 56.4159 24.984 56.4044 24.6147Z" fill="black"/>
<path opacity="0.1" d="M51.6763 22.4445C51.6553 22.4335 51.6333 22.4218 51.6132 22.4102H51.5657C51.6023 22.4239 51.6397 22.4342 51.6763 22.4445Z" fill="black"/>
</g>
<path d="M65.8059 39.2707L65.2693 40.178C65.1161 39.9889 64.9483 39.8067 64.7666 39.6324C64.5059 39.371 64.1983 39.1379 63.8524 38.9399C63.4782 38.7354 63.1249 38.5101 62.7957 38.2659C62.5434 38.0826 62.2674 37.9008 62.0718 37.8246C61.9581 37.7817 61.8495 37.7317 61.7472 37.675C61.3907 37.4691 60.6905 37.047 60.5251 36.7498C60.5251 36.7498 59.0927 35.7415 58.4656 35.5398L57.8403 34.9907L57.1218 34.3613L58.9574 32.9832L59.4976 33.5508L60.3011 34.3949C60.6646 34.734 61.0804 35.0395 61.5397 35.305C61.9974 35.5543 62.42 35.8378 62.8012 36.1513C63.4022 36.642 63.9294 37.1808 64.3735 37.758L65.528 38.9762L65.5362 38.9859L65.7191 39.1773L65.8059 39.2707Z" fill="#DB8B8B"/>
<path d="M54.4345 39.3715L53.7178 40.6488L53.1364 40.1779L52.8969 39.8005L52.6885 39.4717L51.6583 39.0009L50.6528 38.5081C50.4791 38.4231 50.2897 38.3579 50.0906 38.3145C49.2213 38.1237 49.3712 37.7572 49.3712 37.7572L49.4507 36.806L49.5056 36.1437L51.8823 35.9419L51.7634 36.4463L51.6135 37.0846C52.5093 37.1855 53.0907 38.2946 53.0907 38.2946C53.4445 38.6934 53.78 38.8588 53.9674 38.9247C54.0161 38.9432 54.0677 38.9572 54.1209 38.9666L54.4345 39.3715Z" fill="#DB8B8B"/>
<path opacity="0.1" d="M65.5364 38.9865L65.5154 38.9775H65.5282L65.5364 38.9865Z" fill="black"/>
<path opacity="0.1" d="M65.806 39.2706L65.2695 40.178C65.1163 39.9888 64.9484 39.8067 64.7667 39.6323C64.849 39.6914 65.3088 40.0057 65.4559 39.7188C65.5123 39.6018 65.5773 39.4873 65.6506 39.3757C65.6961 39.3162 65.7192 39.2486 65.7174 39.1801L65.806 39.2706Z" fill="black"/>
<path opacity="0.1" d="M65.7621 39.2108L65.5793 39.0193L65.571 39.0097L64.4165 37.7915C63.9715 37.2146 63.4433 36.6763 62.8415 36.1862C62.4603 35.8727 62.0377 35.5891 61.58 35.3399C61.1206 35.0744 60.7049 34.7689 60.3414 34.4298L59.5406 33.5891L59.0004 33.0215L58.9218 33.0805L59.4054 33.5891L60.2089 34.4333C60.5728 34.7714 60.9889 35.076 61.4484 35.3406C61.906 35.5898 62.3287 35.8734 62.7099 36.1868C63.3107 36.6769 63.8379 37.215 64.2821 37.7915L65.4385 39.0111L65.4467 39.0207L65.6295 39.2122L65.721 39.3055L65.2401 40.1181C65.2904 40.1779 65.3187 40.2129 65.3187 40.2129L65.8562 39.3055L65.7621 39.2108Z" fill="black"/>
<path opacity="0.1" d="M54.4346 39.3715L53.7179 40.6488L53.1365 40.178L52.897 39.8005L53.5844 40.1437C54.26 39.8266 53.9995 39.016 53.9684 38.9254C54.0172 38.9439 54.0687 38.958 54.1219 38.9673L54.4346 39.3715Z" fill="black"/>
<path d="M54.0094 38.9514C54.0094 38.9514 54.3449 39.8437 53.6291 40.1786L52.6885 39.7078C52.6885 39.7078 52.5057 40.0441 53.0916 40.4813C53.3096 40.6279 53.4796 40.8104 53.5883 41.0144C53.6971 41.2184 53.7417 41.4386 53.7187 41.6576C53.7187 41.6576 53.8101 42.4641 54.3458 42.263C54.3458 42.263 55.1968 42.1257 55.152 41.0193C55.152 41.0193 54.8129 40.0962 55.2078 39.7057C55.2188 39.6952 55.23 39.6849 55.2416 39.6748C55.6895 39.3049 55.1073 38.7339 55.1073 38.7339C55.1073 38.7339 54.0542 38.414 54.0094 38.9514Z" fill="#535461"/>
<path opacity="0.1" d="M55.0614 29.8253C54.5687 29.8253 54.6135 30.3298 53.9873 30.4307C53.3612 30.5316 51.1664 31.2371 50.4954 30.9351C49.8245 30.6331 49.3766 29.9942 49.3766 29.9942V29.9255C50.4954 30.3627 51.884 29.9255 51.884 29.9255C52.873 30.0683 54.5742 29.0944 55.0623 28.7986V28.8157C55.0623 28.8157 55.5532 29.8253 55.0614 29.8253Z" fill="black"/>
<path opacity="0.1" d="M49.5094 36.1444L51.8861 35.9426L51.7673 36.4471C51.0314 36.7038 49.972 36.7827 49.4583 36.8067L49.5094 36.1444Z" fill="black"/>
<path opacity="0.1" d="M59.4959 33.5521C59.3834 34.1698 58.4638 34.7003 57.8386 34.9934L57.1201 34.364L58.9556 32.9858L59.4959 33.5521Z" fill="black"/>
<path d="M51.8822 29.9927C51.8822 29.9927 50.4945 30.4299 49.3748 29.9927L49.1508 32.2789C49.1508 32.2789 49.1956 33.2872 49.0164 33.8575C48.8373 34.4279 49.1508 36.7484 49.1508 36.7484C49.1508 36.7484 51.927 36.7147 52.4635 35.9419C52.4635 35.9419 53.6272 34.1938 53.4042 33.5892L55.822 33.9927L57.2553 35.1677C57.2553 35.1677 59.718 34.294 59.494 33.2179L56.1803 30.2947L55.1958 28.7848C55.1958 28.7848 53.0467 30.1609 51.8822 29.9927Z" fill="#221FD1"/>
<path opacity="0.1" d="M57.2555 35.1677L55.8231 33.9913L53.4044 33.5892C53.4098 33.6043 53.4144 33.62 53.419 33.6365C53.4264 33.6687 53.4307 33.7013 53.4318 33.734C53.4693 34.4334 52.4647 35.9426 52.4647 35.9426C51.9272 36.7161 49.1519 36.7491 49.1519 36.7491C49.1519 36.7491 48.8338 34.4306 49.0166 33.8589C49.1994 33.2872 49.151 32.2803 49.151 32.2803L49.3667 30.0792L49.375 29.9948C49.6875 30.113 50.0307 30.1785 50.3805 30.187C50.8759 30.1977 51.3695 30.1374 51.8348 30.0092L51.8824 29.9948C51.9086 29.9985 51.9354 30.0014 51.9628 30.0037C52.9245 30.0833 54.4666 29.2227 55.0031 28.9022C55.1247 28.8294 55.1951 28.7848 55.1951 28.7848L56.1805 30.2947L59.4933 33.2192C59.5004 33.2528 59.5047 33.2868 59.5061 33.3208C59.5637 34.3503 57.2555 35.1677 57.2555 35.1677Z" fill="black"/>
<path opacity="0.3" d="M54.3073 22.0265C53.31 23.3793 51.8392 22.6305 51.4315 22.3821L51.5686 22.3759C51.9553 22.6031 52.4827 22.636 52.7442 22.636C52.8359 22.6363 52.9276 22.6413 53.0184 22.6511C53.7744 22.7307 54.0047 21.9764 54.0047 21.9764L54.3073 22.0265Z" fill="white"/>
<path d="M65.5621 39.0112C65.7155 39.0047 65.8684 39.0284 66.0058 39.0799C66.1432 39.1314 66.2603 39.209 66.3455 39.3049C66.3455 39.3049 67.5083 40.0407 68.1344 40.1093C68.1344 40.1093 70.0148 40.7147 69.4773 41.5547C68.9398 42.3948 67.6417 41.6234 67.6417 41.6234C67.6417 41.6234 66.2541 40.6824 65.8062 40.7497C65.8062 40.7497 64.5749 40.1951 64.8007 39.657C64.8007 39.657 65.34 40.0688 65.5027 39.7524C65.5588 39.6354 65.6235 39.5208 65.6965 39.4092C65.7833 39.2802 65.8281 39.1121 65.5621 39.0112Z" fill="#535461"/>
<path opacity="0.1" d="M51.5877 30.001C51.1197 30.1032 50.1782 30.2398 49.3756 29.9261L49.361 30.0765C50.3345 30.3421 51.4113 30.0524 51.5877 30.001Z" fill="black"/>
<path opacity="0.1" d="M52.6054 29.8829C52.3722 29.9396 52.1248 29.9553 51.8823 29.9289C51.8823 29.9289 51.7836 29.9598 51.619 29.9975C51.9052 30.0339 52.2489 29.9811 52.6054 29.8829Z" fill="black"/>
<path opacity="0.1" d="M59.5069 33.3215C59.464 34.3187 57.2555 35.1025 57.2555 35.1025L57.2244 35.0771C57.8359 34.8252 59.4064 34.0888 59.2254 33.2199L55.9117 30.2948L55.0031 28.8995C55.1247 28.8267 55.1951 28.7821 55.1951 28.7821L56.1805 30.292L59.4932 33.2165C59.5009 33.2512 59.5054 33.2863 59.5069 33.3215Z" fill="black"/>
<path opacity="0.1" d="M53.1364 33.5891C53.3603 34.1945 52.1958 35.9419 52.1958 35.9419C52.0367 36.1704 51.683 36.3344 51.2625 36.4518C51.7963 36.3324 52.2726 36.1505 52.4645 35.8746C52.4645 35.8746 53.4975 34.3235 53.4298 33.6378L53.1364 33.5891Z" fill="black"/>
<path opacity="0.3" d="M52.3752 24.8666C51.7445 24.8666 51.2335 25.4157 51.2335 26.0938C51.2335 26.7719 51.7445 27.3209 52.3752 27.3209C53.006 27.3209 53.517 26.7719 53.517 26.0938C53.517 25.4157 53.006 24.8666 52.3752 24.8666ZM52.3752 26.8165C52.0041 26.8165 51.7025 26.4932 51.7025 26.0938C51.7025 25.6943 52.0032 25.371 52.3752 25.371C52.7473 25.371 53.048 25.6943 53.048 26.0938C53.048 26.4932 52.7464 26.8165 52.3752 26.8165Z" fill="white"/>
<path d="M59.8579 16.2063C59.8579 16.2461 59.8579 16.2855 59.8579 16.3244C59.8579 16.3457 59.8579 16.3669 59.8515 16.3875C59.8131 16.7401 59.6558 17.0795 59.3944 17.3738C59.3771 17.3937 59.3588 17.4129 59.3405 17.4321C59.0912 17.6946 58.7621 17.9086 58.3806 18.0564C57.999 18.2041 57.576 18.2814 57.1466 18.2818C57.0854 18.2818 57.0241 18.2818 56.9638 18.277C56.9035 18.2722 56.8514 18.2701 56.7956 18.2647C56.4081 18.2252 56.0365 18.1232 55.7064 17.9658C55.3763 17.8084 55.0955 17.5991 54.8833 17.3525C54.8687 17.3367 54.8549 17.3196 54.8421 17.3038V17.3004C54.5741 16.971 54.4327 16.5923 54.4335 16.2063C54.4334 16.1034 54.4431 16.0007 54.4628 15.8989L54.4774 15.8302C54.5516 15.5162 54.7211 15.2192 54.9728 14.9624C55.2246 14.7055 55.5518 14.4957 55.929 14.3491L56.0278 14.3127C56.3486 14.2016 56.6955 14.1391 57.0487 14.1288C57.4018 14.1186 57.7541 14.1608 58.0854 14.253C58.1717 14.2771 58.2562 14.3046 58.3386 14.3354C58.9459 14.5625 59.4201 14.9498 59.6705 15.4232C59.6796 15.439 59.6869 15.4541 59.6943 15.4699C59.8069 15.7061 59.8623 15.9555 59.8579 16.2063Z" fill="#F88787"/>
<path opacity="0.5" d="M59.6834 15.4699C59.5095 15.5087 59.3291 15.5283 59.1477 15.5283H59.1166H59.0453C59.0014 15.5283 58.9585 15.5242 58.9173 15.52C58.5618 15.4881 58.2212 15.3941 57.9228 15.2455C57.1248 14.6347 56.3432 14.426 55.9209 14.3533L56.0196 14.3169C56.4346 14.3958 57.1083 14.5914 57.8094 15.0856C57.9902 15.214 58.2034 15.3139 58.4365 15.3793C58.5967 15.4238 58.7633 15.454 58.9329 15.4692C58.9694 15.4692 59.0051 15.4747 59.0407 15.4768H59.113C59.2983 15.4806 59.4832 15.463 59.6614 15.4246C59.6678 15.4418 59.676 15.4569 59.6834 15.4699Z" fill="white"/>
<path opacity="0.5" d="M59.8534 16.3244C59.8534 16.3457 59.8534 16.367 59.847 16.3876C59.6132 16.2753 59.3633 16.1832 59.102 16.113L59.0335 16.0945C58.4105 15.9374 57.767 15.8306 57.1138 15.7761C55.5781 15.6292 54.8121 15.7665 54.4474 15.8969L54.462 15.8282C54.8569 15.6978 55.6348 15.5791 57.123 15.7212C57.7757 15.7759 58.419 15.8815 59.0426 16.0362L59.1112 16.0547C59.3709 16.1241 59.6198 16.2146 59.8534 16.3244Z" fill="white"/>
<path opacity="0.5" d="M59.1113 16.0595C59.1113 16.0781 59.1058 16.0966 59.1031 16.1158C59.0872 16.2096 59.0647 16.3078 59.0354 16.4103C59.0129 16.4876 58.9879 16.5619 58.9605 16.6333C58.9531 16.6518 58.9458 16.6704 58.9385 16.6882C58.5912 17.5235 57.8845 17.9469 57.326 18.1583C57.2074 18.2036 57.0853 18.2435 56.9604 18.2778L56.7922 18.2654C56.9676 18.2244 57.1383 18.1725 57.3023 18.1103C57.8507 17.9044 58.5445 17.4837 58.8828 16.6566C58.8901 16.6402 58.8965 16.623 58.9029 16.6059C58.9285 16.5395 58.9516 16.4709 58.9723 16.4C59.0022 16.297 59.0251 16.1963 59.0409 16.098C59.0409 16.0794 59.0464 16.0602 59.0491 16.0417C59.0724 15.8715 59.0724 15.6999 59.0491 15.5297C59.0491 15.5118 59.0446 15.494 59.0409 15.4768C58.9852 15.1071 58.7716 14.7609 58.4321 14.4899C58.3212 14.4027 58.1987 14.3243 58.0665 14.2559C58.1527 14.2799 58.2373 14.3074 58.3197 14.3382C58.3733 14.3735 58.4263 14.4119 58.4787 14.4535C58.8281 14.7357 59.0465 15.0952 59.1012 15.4782C59.1012 15.4954 59.1067 15.5132 59.1095 15.5304C59.1345 15.7062 59.1351 15.8836 59.1113 16.0595Z" fill="white"/>
<path opacity="0.5" d="M59.3871 17.3746C59.3698 17.3945 59.3515 17.4137 59.3332 17.4329C59.2565 17.1831 59.1334 16.9426 58.9676 16.7184C58.9588 16.7073 58.9481 16.6971 58.9356 16.6882C58.9173 16.6757 58.8967 16.6653 58.8743 16.6573C58.5224 16.5262 57.4712 16.7459 56.6896 17.063C56.0881 17.3073 55.3011 17.3505 54.8705 17.3533L54.8294 17.3046V17.3011C55.2407 17.3011 56.0488 17.2641 56.6576 17.017C57.3889 16.7219 58.4767 16.4679 58.8953 16.6052C58.9175 16.6125 58.9387 16.6214 58.9584 16.6319C58.9871 16.6473 59.0114 16.6669 59.0297 16.6896C59.1881 16.9053 59.3082 17.1355 59.3871 17.3746Z" fill="white"/>
<path opacity="0.1" d="M27.7178 51.1002H23.6957V51.4434H27.7178V51.1002Z" fill="black"/>
<path opacity="0.3" d="M16.6259 6.55923L7.24164 13.6607V15.3422L17.8911 6.25244L16.6259 6.55923Z" fill="white"/>
<path opacity="0.3" d="M19.8646 5.87633L7.24164 17.8817V19.6613L23.0137 5.52356L19.8646 5.87633Z" fill="white"/>
</g>
<defs>
<linearGradient id="paint0_linear_28_366" x1="25.7569" y1="52.6019" x2="25.7569" y2="24.4869" gradientUnits="userSpaceOnUse">
<stop stop-color="#808080" stop-opacity="0.25"/>
<stop offset="0.54" stop-color="#808080" stop-opacity="0.12"/>
<stop offset="1" stop-color="#808080" stop-opacity="0.1"/>
</linearGradient>
<linearGradient id="paint1_linear_28_366" x1="3654.74" y1="1753.15" x2="3654.74" y2="1684.66" gradientUnits="userSpaceOnUse">
<stop stop-color="#808080" stop-opacity="0.25"/>
<stop offset="0.54" stop-color="#808080" stop-opacity="0.12"/>
<stop offset="1" stop-color="#808080" stop-opacity="0.1"/>
</linearGradient>
<linearGradient id="paint2_linear_28_366" x1="14961" y1="8505.57" x2="14961" y2="2452.9" gradientUnits="userSpaceOnUse">
<stop stop-color="#808080" stop-opacity="0.25"/>
<stop offset="0.54" stop-color="#808080" stop-opacity="0.12"/>
<stop offset="1" stop-color="#808080" stop-opacity="0.1"/>
</linearGradient>
<linearGradient id="paint3_linear_28_366" x1="14016.4" y1="7790.3" x2="14016.4" y2="2478.28" gradientUnits="userSpaceOnUse">
<stop stop-color="#808080" stop-opacity="0.25"/>
<stop offset="0.54" stop-color="#808080" stop-opacity="0.12"/>
<stop offset="1" stop-color="#808080" stop-opacity="0.1"/>
</linearGradient>
<linearGradient id="paint4_linear_28_366" x1="2772.33" y1="2108.32" x2="2772.33" y2="1531.06" gradientUnits="userSpaceOnUse">
<stop stop-color="#808080" stop-opacity="0.25"/>
<stop offset="0.54" stop-color="#808080" stop-opacity="0.12"/>
<stop offset="1" stop-color="#808080" stop-opacity="0.1"/>
</linearGradient>
<linearGradient id="paint5_linear_28_366" x1="2305.92" y1="1713.01" x2="2305.92" y2="1315.12" gradientUnits="userSpaceOnUse">
<stop stop-color="#808080" stop-opacity="0.25"/>
<stop offset="0.54" stop-color="#808080" stop-opacity="0.12"/>
<stop offset="1" stop-color="#808080" stop-opacity="0.1"/>
</linearGradient>
<linearGradient id="paint6_linear_28_366" x1="5936.9" y1="4699.44" x2="5936.9" y2="3559.88" gradientUnits="userSpaceOnUse">
<stop stop-color="#808080" stop-opacity="0.25"/>
<stop offset="0.54" stop-color="#808080" stop-opacity="0.12"/>
<stop offset="1" stop-color="#808080" stop-opacity="0.1"/>
</linearGradient>
<linearGradient id="paint7_linear_28_366" x1="5046.1" y1="4456.78" x2="5046.1" y2="3432.81" gradientUnits="userSpaceOnUse">
<stop stop-color="#808080" stop-opacity="0.25"/>
<stop offset="0.54" stop-color="#808080" stop-opacity="0.12"/>
<stop offset="1" stop-color="#808080" stop-opacity="0.1"/>
</linearGradient>
<linearGradient id="paint8_linear_28_366" x1="2456.2" y1="3811.56" x2="2456.2" y2="2861.74" gradientUnits="userSpaceOnUse">
<stop stop-color="#808080" stop-opacity="0.25"/>
<stop offset="0.54" stop-color="#808080" stop-opacity="0.12"/>
<stop offset="1" stop-color="#808080" stop-opacity="0.1"/>
</linearGradient>
<linearGradient id="paint9_linear_28_366" x1="5995.66" y1="838.459" x2="5995.66" y2="782.575" gradientUnits="userSpaceOnUse">
<stop stop-color="#808080" stop-opacity="0.25"/>
<stop offset="0.54" stop-color="#808080" stop-opacity="0.12"/>
<stop offset="1" stop-color="#808080" stop-opacity="0.1"/>
</linearGradient>
<linearGradient id="paint10_linear_28_366" x1="5995.66" y1="838.459" x2="5995.66" y2="782.575" gradientUnits="userSpaceOnUse">
<stop stop-color="#808080" stop-opacity="0.25"/>
<stop offset="0.54" stop-color="#808080" stop-opacity="0.12"/>
<stop offset="1" stop-color="#808080" stop-opacity="0.1"/>
</linearGradient>
<linearGradient id="paint11_linear_28_366" x1="5995.66" y1="832.275" x2="5995.66" y2="776.391" gradientUnits="userSpaceOnUse">
<stop stop-color="#808080" stop-opacity="0.25"/>
<stop offset="0.54" stop-color="#808080" stop-opacity="0.12"/>
<stop offset="1" stop-color="#808080" stop-opacity="0.1"/>
</linearGradient>
<linearGradient id="paint12_linear_28_366" x1="22049.4" y1="18444.4" x2="22049.4" y2="7631.8" gradientUnits="userSpaceOnUse">
<stop stop-color="#808080" stop-opacity="0.25"/>
<stop offset="0.54" stop-color="#808080" stop-opacity="0.12"/>
<stop offset="1" stop-color="#808080" stop-opacity="0.1"/>
</linearGradient>
<clipPath id="clip0_28_366">
<rect width="92" height="54" fill="white"/>
</clipPath>
</defs>
</svg>
