<svg width="21" height="21" viewBox="0 0 21 21" fill="none" xmlns="http://www.w3.org/2000/svg">
<path d="M10.5 0.328125C4.88086 0.328125 0.328125 4.88086 0.328125 10.5C0.328125 16.1191 4.88086 20.6719 10.5 20.6719C16.1191 20.6719 20.6719 16.1191 20.6719 10.5C20.6719 4.88086 16.1191 0.328125 10.5 0.328125ZM10.5 4.26562C12.4934 4.26562 14.1094 5.88164 14.1094 7.875C14.1094 9.86836 12.4934 11.4844 10.5 11.4844C8.50664 11.4844 6.89062 9.86836 6.89062 7.875C6.89062 5.88164 8.50664 4.26562 10.5 4.26562ZM10.5 18.375C8.09238 18.375 5.93496 17.284 4.49121 15.5777C5.2623 14.1258 6.77168 13.125 8.53125 13.125C8.62969 13.125 8.72813 13.1414 8.82246 13.1701C9.35566 13.3424 9.91348 13.4531 10.5 13.4531C11.0865 13.4531 11.6484 13.3424 12.1775 13.1701C12.2719 13.1414 12.3703 13.125 12.4688 13.125C14.2283 13.125 15.7377 14.1258 16.5088 15.5777C15.065 17.284 12.9076 18.375 10.5 18.375Z" fill="#8A8A8A"/>
</svg>
