<svg width="18" height="18" viewBox="0 0 18 18" fill="none" xmlns="http://www.w3.org/2000/svg">
<g id="bx:bx-search">
<path id="Vector" d="M7.5 13.5001C8.83123 13.4998 10.1241 13.0541 11.1728 12.2341L14.4697 15.5311L15.5303 14.4706L12.2333 11.1736C13.0538 10.1248 13.4997 8.83164 13.5 7.50006C13.5 4.19181 10.8083 1.50006 7.5 1.50006C4.19175 1.50006 1.5 4.19181 1.5 7.50006C1.5 10.8083 4.19175 13.5001 7.5 13.5001ZM7.5 3.00006C9.98175 3.00006 12 5.01831 12 7.50006C12 9.98181 9.98175 12.0001 7.5 12.0001C5.01825 12.0001 3 9.98181 3 7.50006C3 5.01831 5.01825 3.00006 7.5 3.00006Z" fill="#8A8A8A"/>
</g>
</svg>
