<svg width="26" height="26" viewBox="0 0 26 26" fill="none" xmlns="http://www.w3.org/2000/svg">
<path d="M10.8333 19.5C12.7562 19.4996 14.6237 18.8558 16.1384 17.6713L20.9007 22.4336L22.4325 20.9018L17.6702 16.1395C18.8554 14.6246 19.4995 12.7567 19.5 10.8333C19.5 6.05471 15.6119 2.16663 10.8333 2.16663C6.05471 2.16663 2.16663 6.05471 2.16663 10.8333C2.16663 15.6119 6.05471 19.5 10.8333 19.5ZM10.8333 4.33329C14.418 4.33329 17.3333 7.24854 17.3333 10.8333C17.3333 14.418 14.418 17.3333 10.8333 17.3333C7.24854 17.3333 4.33329 14.418 4.33329 10.8333C4.33329 7.24854 7.24854 4.33329 10.8333 4.33329Z" fill="black"/>
</svg>
