<svg width="16" height="16" viewBox="0 0 16 16" fill="none" xmlns="http://www.w3.org/2000/svg">
<g clip-path="url(#clip0_23_211)">
<path d="M4.82495 7.03748L4.61245 8.47498C4.49995 9.22498 4.31245 10.025 3.87495 10.6375L3.57495 11.0625L4.87495 12.3625L5.22495 12.1C5.88745 11.6125 6.74995 11.4 7.57495 11.3L8.93745 11.125C8.93745 11.125 7.64995 10.7375 6.42495 9.51248C5.19995 8.28748 4.82495 7.03748 4.82495 7.03748ZM5.13745 10.825C4.62495 10.3125 5.34995 8.58748 5.34995 8.58748L7.34995 10.5875C7.34995 10.5875 5.64995 11.3375 5.13745 10.825Z" fill="url(#paint0_linear_23_211)"/>
<path d="M10.7871 1.17582L10.9816 0.981323L15.0651 5.06495L14.8706 5.25945L10.7871 1.17582Z" fill="#A0A8D5"/>
<path d="M8.84912 1.4589L9.04362 1.2644L14.7799 7.00065L14.5855 7.19515L8.84912 1.4589Z" fill="#A0A8D5"/>
<path d="M7.5918 2.42448L7.78617 2.22998L13.8142 8.25811L13.6198 8.45248L7.5918 2.42448Z" fill="#A0A8D5"/>
<path d="M6.48364 3.52092L6.67814 3.32642L12.7061 9.35442L12.5116 9.54892L6.48364 3.52092Z" fill="#A0A8D5"/>
<path d="M5.64819 4.89335L5.84269 4.69897L11.2697 10.126L11.0752 10.3204L5.64819 4.89335Z" fill="#A0A8D5"/>
<path d="M5.29443 6.76811L5.48893 6.57361L9.38681 10.4715L9.19243 10.666L5.29443 6.76811Z" fill="#A0A8D5"/>
<path d="M8.30225 10.6717L14.7987 4.17517L14.9931 4.36967L8.49675 10.8662L8.30225 10.6717Z" fill="#A0A8D5"/>
<path d="M5.9917 9.86293L13.9819 1.8728L14.1764 2.06718L6.1862 10.0574L5.9917 9.86293Z" fill="#A0A8D5"/>
<path d="M7.05835 10.3464L14.4741 2.93079L14.6685 3.12516L7.25285 10.5409L7.05835 10.3464Z" fill="#A0A8D5"/>
<path d="M5.0271 7.73683L11.9388 0.824951L12.1332 1.01945L5.22147 7.9312L5.0271 7.73683Z" fill="#A0A8D5"/>
<path d="M5.50024 8.81252L13.0221 1.29077L13.2165 1.48515L5.69474 9.00702L5.50024 8.81252Z" fill="#A0A8D5"/>
<path d="M5.17334 6.03729L10.2646 0.946045L10.459 1.14054L5.36771 6.23179L5.17334 6.03729Z" fill="#A0A8D5"/>
<path d="M10.0505 10.4633L14.6998 5.81421L14.8942 6.00858L10.245 10.6578L10.0505 10.4633Z" fill="#A0A8D5"/>
<path d="M13.6501 2.31256C14.3001 2.96256 14.5751 3.92506 14.4376 5.02506C14.2876 6.22506 13.6626 7.41256 12.6876 8.38756C11.7126 9.36256 10.5126 10.0001 9.3126 10.1501C8.2126 10.3001 7.2501 10.0126 6.6001 9.36256C5.9501 8.71256 5.6751 7.75006 5.8126 6.65006C5.9626 5.45006 6.5876 4.26256 7.5626 3.28756C8.5376 2.31256 9.7376 1.68756 10.9251 1.53756C12.0376 1.38756 13.0001 1.67506 13.6501 2.31256ZM14.3251 1.63756C12.5376 -0.149944 9.2001 0.287556 6.88759 2.61256C4.57509 4.93756 4.1251 8.26256 5.9126 10.0501C7.7001 11.8376 11.0251 11.4001 13.3501 9.07506C15.6751 6.75006 16.1126 3.42506 14.3251 1.63756Z" fill="url(#paint1_linear_23_211)"/>
<path opacity="0.2" d="M11.4875 0.787476C12.5625 0.787476 13.475 1.13748 14.15 1.81248C15.8375 3.49998 15.4 6.67497 13.175 8.89997C11.95 10.125 10.3875 10.85 8.88745 10.9H8.86245L7.52495 11.0625C6.46245 11.2 5.66245 11.475 5.06245 11.9L4.88745 12.025L3.88745 11.025L4.07495 10.7625C4.56245 10.075 4.73745 9.18748 4.84995 8.49998L5.06245 7.08748V7.06248C5.11245 5.56248 5.83745 3.99998 7.06245 2.78748C8.32495 1.51248 9.93745 0.787476 11.4875 0.787476ZM8.74995 10.4375C8.93745 10.4375 9.13745 10.425 9.33745 10.4C10.5875 10.2375 11.8375 9.58747 12.85 8.57498C13.8625 7.56248 14.5125 6.31248 14.675 5.06248C14.825 3.87498 14.525 2.83748 13.825 2.13748C13.2375 1.54998 12.4375 1.24998 11.4875 1.24998C11.3 1.24998 11.1 1.26248 10.9 1.28748C9.64995 1.44998 8.39995 2.09998 7.38745 3.11248C6.37495 4.12498 5.72495 5.37498 5.56245 6.62498C5.41245 7.81248 5.71245 8.84998 6.41245 9.54998C6.99995 10.1375 7.81245 10.4375 8.74995 10.4375ZM5.71245 11.25C6.13745 11.25 6.64995 11.1125 6.98745 10.9875C7.08745 10.95 7.14995 10.8625 7.14995 10.7625C7.14995 10.6625 7.09995 10.5625 7.01245 10.525C6.66245 10.3625 6.34995 10.1375 6.07495 9.87498C5.79995 9.59998 5.57495 9.27498 5.39995 8.91248C5.36245 8.82498 5.27495 8.76248 5.17495 8.76248H5.16245C5.06245 8.77497 4.97495 8.83747 4.93745 8.93748C4.62495 9.96247 4.62495 10.6625 4.96245 11C5.13745 11.1625 5.38745 11.25 5.71245 11.25ZM11.4875 0.537476C9.94995 0.537476 8.24995 1.24998 6.88745 2.61248C5.57495 3.92498 4.86245 5.56248 4.81245 7.06248L4.59995 8.47498C4.49995 9.22498 4.31245 10.025 3.87495 10.6375L3.57495 11.0625L4.87495 12.3625L5.22495 12.1C5.88745 11.6125 6.74995 11.4 7.57495 11.3L8.91245 11.1375C10.4125 11.1 12.05 10.3875 13.3625 9.07498C15.6875 6.74998 16.125 3.42498 14.3375 1.63748C13.5875 0.899976 12.575 0.537476 11.4875 0.537476ZM8.74995 10.1875C7.87495 10.1875 7.12495 9.89998 6.58745 9.36248C5.93745 8.71248 5.66245 7.74998 5.79995 6.64998C5.94995 5.44998 6.57495 4.26248 7.54995 3.28748C8.52495 2.31248 9.72495 1.68748 10.9125 1.53748C11.1 1.51248 11.2875 1.49998 11.475 1.49998C12.3375 1.49998 13.1 1.78748 13.6375 2.32498C14.2875 2.97498 14.5625 3.93748 14.425 5.03748C14.275 6.23748 13.65 7.42498 12.675 8.39998C11.7 9.37498 10.5 9.99998 9.31245 10.15C9.11245 10.175 8.93745 10.1875 8.74995 10.1875ZM5.71245 11C5.47495 11 5.26245 10.95 5.13745 10.825C4.78745 10.475 5.01245 9.56248 5.18745 9.01248C5.36245 9.39997 5.59995 9.73748 5.91245 10.05C6.21245 10.35 6.54995 10.575 6.91245 10.75C6.57495 10.875 6.11245 11 5.71245 11Z" fill="#434343"/>
<path d="M0.754395 13.7568L3.74189 10.7693L5.20027 12.2277L2.21277 15.2152L0.754395 13.7568Z" fill="#616262"/>
<path d="M4.76255 12.5625L3.37505 11.1625C3.27505 11.0625 3.27505 10.9 3.37505 10.8125L3.41255 10.775C3.51255 10.675 3.66255 10.675 3.76255 10.775L5.15005 12.175C5.25005 12.275 5.25005 12.4375 5.15005 12.525L5.11255 12.5625C5.02505 12.6625 4.86255 12.6625 4.76255 12.5625Z" fill="#616262"/>
<path d="M2.025 15.3L0.6375 13.9C0.5375 13.8 0.5375 13.6375 0.6375 13.55L0.675 13.5125C0.775 13.4125 0.925 13.4125 1.025 13.5125L2.4125 14.9125C2.5125 15.0125 2.5125 15.175 2.4125 15.2625L2.375 15.3C2.2875 15.4 2.125 15.4 2.025 15.3Z" fill="#616262"/>
<path opacity="0.2" d="M3.58755 10.9625C3.58755 10.9625 3.60005 10.9625 3.60005 10.975L4.96255 12.3375V12.35C4.96255 12.35 4.97505 12.3625 4.96255 12.375C4.96255 12.375 4.96255 12.3875 4.95005 12.3875H4.93755C4.90005 12.375 4.86255 12.3625 4.82505 12.3625C4.76255 12.3625 4.70005 12.3875 4.65005 12.4375L2.27505 14.8125C2.20005 14.8875 2.17505 15 2.22505 15.1C2.22505 15.1 2.23755 15.1125 2.22505 15.125L2.21255 15.1375C2.21255 15.1375 2.20005 15.1375 2.20005 15.125L0.825049 13.7375C0.812549 13.725 0.812549 13.7125 0.825049 13.7L0.837549 13.6875H0.850049C0.887549 13.7125 0.950049 13.7375 1.00005 13.7375C1.06255 13.7375 1.12505 13.7125 1.17505 13.6625L3.52505 11.3125C3.61255 11.225 3.62505 11.0875 3.55005 10.9875C3.55005 10.975 3.53755 10.9625 3.55005 10.9625H3.58755ZM3.58755 10.7125C3.51255 10.7125 3.45005 10.7375 3.40005 10.7875C3.30005 10.8875 3.30005 11.0375 3.37505 11.1375L1.00005 13.5C0.950049 13.4625 0.900049 13.45 0.837549 13.45C0.762549 13.45 0.700049 13.475 0.650049 13.525C0.537549 13.6375 0.537549 13.8 0.650049 13.9125L2.01255 15.275C2.06255 15.325 2.13755 15.35 2.20005 15.35C2.26255 15.35 2.33755 15.325 2.38755 15.275C2.47505 15.1875 2.48755 15.0625 2.43755 14.9625L4.81255 12.5875C4.85005 12.6 4.88755 12.6125 4.93755 12.6125C5.01255 12.6125 5.07505 12.5875 5.12505 12.5375C5.21255 12.45 5.22505 12.325 5.17505 12.225L5.16255 12.2125C5.15005 12.1875 5.13755 12.175 5.12505 12.1625L3.77505 10.8C3.72505 10.7375 3.65005 10.7125 3.58755 10.7125Z" fill="#EEEEEE"/>
<path d="M3.85005 13.575L2.67505 11.8375L3.15005 11.3625L4.31255 13.1125L3.85005 13.575Z" fill="#C2EA2F"/>
<path d="M2.83755 14.5875L1.67505 12.8375L2.15005 12.3625L3.31255 14.1125L2.83755 14.5875Z" fill="#C2EA2F"/>
<path d="M4.375 7.27502C5.96282 7.27502 7.25 5.98784 7.25 4.40002C7.25 2.81221 5.96282 1.52502 4.375 1.52502C2.78718 1.52502 1.5 2.81221 1.5 4.40002C1.5 5.98784 2.78718 7.27502 4.375 7.27502Z" fill="url(#paint2_radial_23_211)"/>
<path d="M1.69995 1.3125C1.69995 1.3125 3.49995 2.3375 3.49995 4.425C3.49995 6.5125 1.69995 7.475 1.69995 7.475" stroke="#F5F5F5" stroke-width="0.375" stroke-miterlimit="10"/>
<path d="M7.05 1.3125C7.05 1.3125 5.25 2.3375 5.25 4.425C5.25 6.5125 7.05 7.475 7.05 7.475" stroke="#F5F5F5" stroke-width="0.375" stroke-miterlimit="10"/>
<g opacity="0.2">
<path opacity="0.2" d="M4.375 1.90002C5.75 1.90002 6.875 3.02502 6.875 4.40002C6.875 5.77502 5.75 6.90002 4.375 6.90002C3 6.90002 1.875 5.77502 1.875 4.40002C1.875 3.02502 3 1.90002 4.375 1.90002ZM4.375 1.52502C2.7875 1.52502 1.5 2.81252 1.5 4.40002C1.5 5.98752 2.7875 7.27502 4.375 7.27502C5.9625 7.27502 7.25 5.98752 7.25 4.40002C7.25 2.81252 5.9625 1.52502 4.375 1.52502Z" fill="#434343"/>
</g>
</g>
<defs>
<linearGradient id="paint0_linear_23_211" x1="6.5777" y1="2.9676" x2="6.23395" y2="11.6551" gradientUnits="userSpaceOnUse">
<stop offset="0.004" stop-color="#5E6BB2"/>
<stop offset="1" stop-color="#3F4DA1"/>
</linearGradient>
<linearGradient id="paint1_linear_23_211" x1="11.1018" y1="0.537822" x2="9.54879" y2="8.93354" gradientUnits="userSpaceOnUse">
<stop offset="0.004" stop-color="#5E6BB2"/>
<stop offset="1" stop-color="#3F4DA1"/>
</linearGradient>
<radialGradient id="paint2_radial_23_211" cx="0" cy="0" r="1" gradientUnits="userSpaceOnUse" gradientTransform="translate(4.32363 3.18402) scale(3.04313)">
<stop stop-color="#FAFF42"/>
<stop offset="0.695" stop-color="#C7E842"/>
</radialGradient>
<clipPath id="clip0_23_211">
<rect width="16" height="16" fill="white"/>
</clipPath>
</defs>
</svg>
