<svg width="21" height="19" viewBox="0 0 21 19" fill="none" xmlns="http://www.w3.org/2000/svg">
<path d="M18.9164 4.25H3.28125C2.91867 4.25 2.625 3.95633 2.625 3.59375C2.625 3.23117 2.91867 2.9375 3.28125 2.9375H19.0312C19.3938 2.9375 19.6875 2.64383 19.6875 2.28125C19.6875 1.19393 18.8061 0.3125 17.7188 0.3125H2.625C1.1751 0.3125 0 1.4876 0 2.9375V16.0625C0 17.5124 1.1751 18.6875 2.625 18.6875H18.9164C20.0657 18.6875 21 17.8044 21 16.7188V6.21875C21 5.13307 20.0657 4.25 18.9164 4.25ZM17.0625 12.7812C16.3378 12.7812 15.75 12.1935 15.75 11.4688C15.75 10.744 16.3378 10.1562 17.0625 10.1562C17.7872 10.1562 18.375 10.744 18.375 11.4688C18.375 12.1935 17.7872 12.7812 17.0625 12.7812Z" fill="#8A8A8A"/>
</svg>
